<?xml version="1.0" encoding="UTF-8" standalone="no"?>
<!-- Created with Inkscape (http://www.inkscape.org/) -->

<svg
   xmlns:dc="http://purl.org/dc/elements/1.1/"
   xmlns:cc="http://creativecommons.org/ns#"
   xmlns:rdf="http://www.w3.org/1999/02/22-rdf-syntax-ns#"
   xmlns:svg="http://www.w3.org/2000/svg"
   xmlns="http://www.w3.org/2000/svg"
   xmlns:sodipodi="http://sodipodi.sourceforge.net/DTD/sodipodi-0.dtd"
   xmlns:inkscape="http://www.inkscape.org/namespaces/inkscape"
   width="400mm"
   height="400mm"
   viewBox="0 0 400 400"
   version="1.1"
   id="svg1181"
   inkscape:version="0.92.5 (2060ec1f9f, 2020-04-08)"
   sodipodi:docname="icono.svg">
  <defs
     id="defs1175" />
  <sodipodi:namedview
     id="base"
     pagecolor="#ffffff"
     bordercolor="#666666"
     borderopacity="1.0"
     inkscape:pageopacity="0.0"
     inkscape:pageshadow="2"
     inkscape:zoom="0.35"
     inkscape:cx="374.28571"
     inkscape:cy="665.71429"
     inkscape:document-units="mm"
     inkscape:current-layer="layer1"
     showgrid="false"
     inkscape:window-width="1684"
     inkscape:window-height="1376"
     inkscape:window-x="1756"
     inkscape:window-y="27"
     inkscape:window-maximized="0" />
  <metadata
     id="metadata1178">
    <rdf:RDF>
      <cc:Work
         rdf:about="">
        <dc:format>image/svg+xml</dc:format>
        <dc:type
           rdf:resource="http://purl.org/dc/dcmitype/StillImage" />
        <dc:title></dc:title>
      </cc:Work>
    </rdf:RDF>
  </metadata>
  <g
     inkscape:label="Capa 1"
     inkscape:groupmode="layer"
     id="layer1"
     transform="translate(0,103)">
    <circle
       style="opacity:1;fill:#005f78;fill-opacity:1;stroke:none;stroke-width:7.20762968;stroke-miterlimit:4;stroke-dasharray:none;stroke-opacity:1"
       id="path1726"
       cx="201.83929"
       cy="95.916672"
       r="196.39098" />
    <g
       transform="matrix(2.6285009,0,0,2.6285009,25.902679,-84.99063)"
       style="clip-rule:evenodd;fill-rule:evenodd;image-rendering:optimizeQuality;shape-rendering:geometricPrecision;text-rendering:geometricPrecision"
       id="g4">
      <path
         inkscape:connector-curvature="0"
         style="opacity:0.98699999;fill:#eef3f5"
         d="m 6.5,74.5 c 0,2 0,4 0,6 -0.23731,1.291 0.09603,2.291 1,3 0.68475,1.9144 1.18475,3.9144 1.5,6 0.68909,0.8567 1.5224,1.5233 2.5,2 4.5378,-0.9493 9.0378,-1.9493 13.5,-3 1.574,-15.0175 3.074,-30.0175 4.5,-45 -2.9176,-1.5084 -3.5843,-3.6751 -2,-6.5 0.948,-0.4828 1.948,-0.6495 3,-0.5 -0.6125,-3.663 -0.7792,-7.3297 -0.5,-11 2.0638,-2.7736 4.5638,-4.6069 7.5,-5.5 1.3341,2.0871 3.1674,3.5871 5.5,4.5 0.4221,1.8553 0.9221,3.6886 1.5,5.5 -1.6779,1.9317 -2.1779,4.0983 -1.5,6.5 2.2897,-0.91 3.4563,0.09 3.5,3 -0.4252,1.8805 -1.4252,3.3805 -3,4.5 0.0699,0.7648 0.4033,1.2648 1,1.5 0.4634,13.0933 1.4634,26.0933 3,39 -1.2928,1.8635 -1.2928,3.8635 0,6 0.6067,-0.1236 0.94,-0.4569 1,-1 2.1702,1.268 4.3368,1.268 6.5,0 8.8478,-12.1774 17.6812,-24.344 26.5,-36.5 -1.7009,-1.8603 -2.7009,-4.027 -3,-6.5 1.3221,0.17 2.4887,-0.1634 3.5,-1 0.4828,0.948 0.6495,1.948 0.5,3 1,2.6667 2,2.6667 3,0 0.8603,-2.4701 2.1936,-2.6368 4,-0.5 -2.8517,2.1526 -3.3517,4.6526 -1.5,7.5 9.3333,12 18.667,24 28,36 10.742,-3.3479 10.909,-6.8479 0.5,-10.5 -6.418,-3.343 -9.251,-8.5096 -8.5,-15.5 2.642,-2.0406 5.475,-2.5406 8.5,-1.5 -4.363,-5.6204 -3.03,-9.2871 4,-11 -3.466,-5.1346 -2.133,-8.1346 4,-9 -3.137,-4.0949 -2.137,-6.7616 3,-8 -4.58,-5.4458 -3.246,-7.4458 4,-6 2.16,0.9959 3.827,2.4959 5,4.5 0.283,0.7891 0.783,1.4558 1.5,2 0.789,-2.2116 0.622,-4.2116 -0.5,-6 -0.111,-0.6174 -0.444,-1.1174 -1,-1.5 -2.924,-0.9876 -5.924,-1.6543 -9,-2 -2.962,-3.2484 -2.295,-5.415 2,-6.5 2.871,1.1261 5.538,2.2928 8,3.5 -2.992,-3.4357 -3.992,-7.2691 -3,-11.5 1.853,-1.2596 3.686,-1.2596 5.5,0 0.497,2.3098 0.663,4.6432 0.5,7 -1.129,2.1282 -1.296,4.4615 -0.5,7 1.188,-1.0634 1.688,-2.3967 1.5,-4 2.086,-6.1975 4.753,-6.5308 8,-1 -0.137,1.6073 -0.804,2.9406 -2,4 -5.694,1.1721 -7.86,4.5055 -6.5,10 1.699,-5.8694 5.532,-8.2027 11.5,-7 0.16,1.6992 -0.006,3.3659 -0.5,5 -2.772,2.2611 -5.938,3.7611 -9.5,4.5 -3.127,7.5371 -2.127,8.2037 3,2 3.365,-2.1574 6.532,-1.9908 9.5,0.5 0.062,3.616 -1.772,5.7826 -5.5,6.5 -6.744,-0.9763 -10.411,1.8571 -11,8.5 -1.073,0.7506 -1.24,1.7506 -0.5,3 0.717,-0.5442 1.217,-1.2109 1.5,-2 3.019,-4.8431 7.353,-7.0098 13,-6.5 4.027,3.3113 3.693,6.3113 -1,9 -3.916,1.1024 -7.916,1.769 -12,2 -2.894,0.8686 -4.061,2.7019 -3.5,5.5 4.581,-3.889 9.748,-5.2224 15.5,-4 3.193,6.2693 1.193,9.6027 -6,10 -0.992,-0.1716 -1.658,0.1618 -2,1 1.208,0.7341 2.541,1.0674 4,1 5.819,1.6128 6.485,4.6128 2,9 -5.19,3.0694 -10.69,3.7361 -16.5,2 -2.264,0.3537 -4.098,1.3537 -5.5,3 0.825,0.8857 1.825,1.219 3,1 -6.55,19.722 -19.55,33.556 -39,41.5 C 57.6621,141.166 30.4954,131.999 10,103.5 -7.07384,69.9882 -1.90718,40.4882 25.5,15 45.6946,0.847817 67.6946,-2.48552 91.5,5 c 12.596,5.0454 23.096,12.8788 31.5,23.5 0.781,1.4437 0.614,2.777 -0.5,4 -1,1.3333 -2,1.3333 -3,0 C 99.8357,8.91268 75.169,1.41268 45.5,10 19.8123,20.5285 6.47898,39.6951 5.5,67.5 c 0.00337,2.5254 0.3367,4.8587 1,7 z m 28,-43 c 1,0 2,0 3,0 -1,6.6667 -2,6.6667 -3,0 z m 94,6 c 0.235,-0.5967 0.735,-0.9301 1.5,-1 2.135,0.6271 4.302,1.1271 6.5,1.5 0.167,2.5 0.333,5 0.5,7.5 -1.759,-3.893 -4.592,-6.5597 -8.5,-8 z m 0,9 c 6.915,0.1535 8.749,3.4868 5.5,10 -1.255,-3.7287 -3.088,-7.062 -5.5,-10 z m 3,20 c -0.667,-0.3333 -1.333,-0.6667 -2,-1 -0.382,-3.1503 -1.716,-5.8169 -4,-8 0.333,-0.3333 0.667,-0.6667 1,-1 1.615,0.654 3.282,1.154 5,1.5 1.179,2.7957 1.179,5.6291 0,8.5 z m -13,0 c 3.218,1.1918 6.385,2.5251 9.5,4 -0.013,3.3969 -0.679,6.7302 -2,10 -0.45,-2.019 -1.283,-3.8523 -2.5,-5.5 0.333,-0.3333 0.667,-0.6667 1,-1 -1.834,-2.6633 -3.834,-5.1633 -6,-7.5 z m 25,7 c -2.902,1.1057 -5.902,2.2724 -9,3.5 -1.21,1.0391 -2.21,2.2058 -3,3.5 -0.667,0 -1,-0.3333 -1,-1 0.34,-2.179 1.34,-4.0123 3,-5.5 3.317,-0.4983 6.65,-0.665 10,-0.5 z m -60,3 c 3.6007,5.6638 7.6007,11.1638 12,16.5 -0.3333,0.3333 -0.6667,0.6667 -1,1 -7.108,0.9239 -14.108,0.5906 -21,-1 4.4125,-4.8978 7.7458,-10.3978 10,-16.5 z m -42,23 c 4.1935,0.532 8.1935,0.532 12,0 5.022,1.005 10.022,2.172 15,3.5 10.9119,5.978 22.5785,8.645 35,8 1.601,-0.273 3.101,-0.773 4.5,-1.5 0.333,0.333 0.667,0.667 1,1 1.11,-1.537 2.61,-2.203 4.5,-2 -1.394,2.208 -3.394,3.708 -6,4.5 -3.695,0.318 -7.362,0.818 -11,1.5 -12.7052,-2.291 -24.8719,-6.291 -36.5,-12 -9.1122,-1.139 -18.2789,-1.139 -27.5,0 -4.8629,1.647 -9.8629,2.647 -15,3 0,-1 0,-2 0,-3 8.071,-0.509 16.071,-1.509 24,-3 z m 11,13 c 2.4009,-0.133 4.7343,-0.133 7,0 8.4598,3.562 17.1265,6.562 26,9 0.7389,-0.131 1.4056,0.036 2,0.5 -1.2932,0.49 -2.6266,0.657 -4,0.5 -0.6667,-1.333 -1.3333,-1.333 -2,0 -10.0403,-2.568 -19.707,-5.901 -29,-10 z"
         id="path2" />
    </g>
    <g
       transform="matrix(2.6285009,0,0,2.6285009,25.902679,-84.99063)"
       style="clip-rule:evenodd;fill-rule:evenodd;image-rendering:optimizeQuality;shape-rendering:geometricPrecision;text-rendering:geometricPrecision"
       id="g8">
      <path
         inkscape:connector-curvature="0"
         style="opacity:0.14100001;fill:#47a0b1"
         d="m 140.5,19.5 c -0.237,1.291 0.096,2.291 1,3 0.188,1.6033 -0.312,2.9366 -1.5,4 -0.796,-2.5385 -0.629,-4.8718 0.5,-7 z"
         id="path6" />
    </g>
    <g
       transform="matrix(2.6285009,0,0,2.6285009,25.902679,-84.99063)"
       style="clip-rule:evenodd;fill-rule:evenodd;image-rendering:optimizeQuality;shape-rendering:geometricPrecision;text-rendering:geometricPrecision"
       id="g40">
      <path
         inkscape:connector-curvature="0"
         style="opacity:0.18399999;fill:#438999"
         d="m 137.5,30.5 c 1.122,1.7884 1.289,3.7884 0.5,6 -0.717,-0.5442 -1.217,-1.2109 -1.5,-2 0.934,-1.0676 1.268,-2.401 1,-4 z"
         id="path38" />
    </g>
    <g
       transform="matrix(2.6285009,0,0,2.6285009,25.902679,-84.99063)"
       style="clip-rule:evenodd;fill-rule:evenodd;image-rendering:optimizeQuality;shape-rendering:geometricPrecision;text-rendering:geometricPrecision"
       id="g60">
      <path
         inkscape:connector-curvature="0"
         style="opacity:0.00799997;fill:#c8e2e1"
         d="m 44.5,45.5 c -0.131,-0.7389 0.0357,-1.4056 0.5,-2 0.6917,0.9368 0.525,1.6034 -0.5,2 z"
         id="path58" />
    </g>
    <g
       transform="matrix(2.6285009,0,0,2.6285009,25.902679,-84.99063)"
       style="clip-rule:evenodd;fill-rule:evenodd;image-rendering:optimizeQuality;shape-rendering:geometricPrecision;text-rendering:geometricPrecision"
       id="g64">
      <path
         inkscape:connector-curvature="0"
         style="opacity:0.00400002;fill:#fefffe"
         d="m 83.5,44.5 c 1.3333,0.6667 1.3333,0.6667 0,0 z"
         id="path62" />
    </g>
    <g
       transform="matrix(2.6285009,0,0,2.6285009,25.902679,-84.99063)"
       style="clip-rule:evenodd;fill-rule:evenodd;image-rendering:optimizeQuality;shape-rendering:geometricPrecision;text-rendering:geometricPrecision"
       id="g68">
      <path
         inkscape:connector-curvature="0"
         style="opacity:0.01199999;fill:#4b9cb3"
         d="m 82.5,48.5 c 1,0 2,0 3,0 -1,2.6667 -2,2.6667 -3,0 z"
         id="path66" />
    </g>
    <g
       transform="matrix(2.6285009,0,0,2.6285009,25.902679,-84.99063)"
       style="clip-rule:evenodd;fill-rule:evenodd;image-rendering:optimizeQuality;shape-rendering:geometricPrecision;text-rendering:geometricPrecision"
       id="g104">
      <path
         inkscape:connector-curvature="0"
         style="opacity:0.02699998;fill:#57a8b4"
         d="m 138.5,55.5 c 0,0.6667 0.333,1 1,1 -0.283,0.7891 -0.783,1.4558 -1.5,2 -0.74,-1.2494 -0.573,-2.2494 0.5,-3 z"
         id="path102" />
    </g>
    <g
       transform="matrix(2.6285009,0,0,2.6285009,25.902679,-84.99063)"
       style="clip-rule:evenodd;fill-rule:evenodd;image-rendering:optimizeQuality;shape-rendering:geometricPrecision;text-rendering:geometricPrecision"
       id="g112">
      <path
         inkscape:connector-curvature="0"
         style="opacity:0.14500002;fill:#3b97a4"
         d="m 129.5,65.5 c 0.667,0.3333 1.333,0.6667 2,1 -1.479,3.9699 -2.146,3.6366 -2,-1 z"
         id="path110" />
    </g>
    <g
       transform="matrix(2.6285009,0,0,2.6285009,25.902679,-84.99063)"
       style="clip-rule:evenodd;fill-rule:evenodd;image-rendering:optimizeQuality;shape-rendering:geometricPrecision;text-rendering:geometricPrecision"
       id="g116">
      <path
         inkscape:connector-curvature="0"
         style="opacity:0.00400002;fill:#fefffe"
         d="m 6.5,73.5 c 1.33333,0.6667 1.33333,0.6667 0,0 z"
         id="path114" />
    </g>
    <g
       transform="matrix(2.6285009,0,0,2.6285009,25.902679,-84.99063)"
       style="clip-rule:evenodd;fill-rule:evenodd;image-rendering:optimizeQuality;shape-rendering:geometricPrecision;text-rendering:geometricPrecision"
       id="g120">
      <path
         inkscape:connector-curvature="0"
         style="opacity:0.03500001;fill:#57a5b0"
         d="m 143.5,73.5 c 0.342,-0.8382 1.008,-1.1716 2,-1 0.667,0.6667 1.333,1.3333 2,2 -1.459,0.0674 -2.792,-0.2659 -4,-1 z"
         id="path118" />
    </g>
    <g
       transform="matrix(2.6285009,0,0,2.6285009,25.902679,-84.99063)"
       style="clip-rule:evenodd;fill-rule:evenodd;image-rendering:optimizeQuality;shape-rendering:geometricPrecision;text-rendering:geometricPrecision"
       id="g128">
      <path
         inkscape:connector-curvature="0"
         style="opacity:0.078;fill:#7aa3ad"
         d="m 6.5,80.5 c 1.98123,0.6054 2.31457,1.6054 1,3 -0.90397,-0.709 -1.23731,-1.709 -1,-3 z"
         id="path126" />
    </g>
    <g
       transform="matrix(2.6285009,0,0,2.6285009,25.902679,-84.99063)"
       style="clip-rule:evenodd;fill-rule:evenodd;image-rendering:optimizeQuality;shape-rendering:geometricPrecision;text-rendering:geometricPrecision"
       id="g132">
      <path
         inkscape:connector-curvature="0"
         style="opacity:0.25899999;fill:#419bb5"
         d="m 130.5,79.5 c 0,0.6667 0.333,1 1,1 -0.502,1.5847 -1.502,2.0847 -3,1.5 0.566,-0.9947 1.233,-1.828 2,-2.5 z"
         id="path130" />
    </g>
    <g
       transform="matrix(2.6285009,0,0,2.6285009,25.902679,-84.99063)"
       style="clip-rule:evenodd;fill-rule:evenodd;image-rendering:optimizeQuality;shape-rendering:geometricPrecision;text-rendering:geometricPrecision"
       id="g136">
      <path
         inkscape:connector-curvature="0"
         style="opacity:0.08999999;fill:#5d939e"
         d="m 47.5,84.5 c -0.2845,1.9147 0.0489,3.5813 1,5 -0.06,0.5431 -0.3933,0.8764 -1,1 -1.2928,-2.1365 -1.2928,-4.1365 0,-6 z"
         id="path134" />
    </g>
    <g
       transform="matrix(2.6285009,0,0,2.6285009,25.902679,-84.99063)"
       style="clip-rule:evenodd;fill-rule:evenodd;image-rendering:optimizeQuality;shape-rendering:geometricPrecision;text-rendering:geometricPrecision"
       id="g172">
      <path
         inkscape:connector-curvature="0"
         style="opacity:0.247;fill:#5c9eaf"
         d="m 41.5,99.5 c 4,-1.3333 8,-1.3333 12,0 -3.8065,0.532 -7.8065,0.532 -12,0 z"
         id="path170" />
    </g>
    <g
       transform="matrix(2.6285009,0,0,2.6285009,25.902679,-84.99063)"
       style="clip-rule:evenodd;fill-rule:evenodd;image-rendering:optimizeQuality;shape-rendering:geometricPrecision;text-rendering:geometricPrecision"
       id="g200">
      <path
         inkscape:connector-curvature="0"
         style="opacity:0.21600001;fill:#7db8d9"
         d="m 36.5,111.5 c 2.7869,-0.977 5.7869,-1.31 9,-1 -2.0994,1.112 -4.4327,1.779 -7,2 -0.3417,-0.838 -1.0084,-1.172 -2,-1 z"
         id="path198" />
    </g>
    <g
       transform="matrix(2.6285009,0,0,2.6285009,25.902679,-84.99063)"
       style="clip-rule:evenodd;fill-rule:evenodd;image-rendering:optimizeQuality;shape-rendering:geometricPrecision;text-rendering:geometricPrecision"
       id="g204">
      <path
         inkscape:connector-curvature="0"
         style="opacity:0.14900004;fill:#85bcd4"
         d="m 47.5,110.5 c 4.2905,-0.302 8.2905,0.364 12,2 -2.2657,-0.133 -4.5991,-0.133 -7,0 -0.6667,0 -1.3333,0 -2,0 -1.6788,0.215 -2.6788,-0.452 -3,-2 z"
         id="path202" />
    </g>
    <g
       transform="matrix(2.6285009,0,0,2.6285009,25.902679,-84.99063)"
       style="clip-rule:evenodd;fill-rule:evenodd;image-rendering:optimizeQuality;shape-rendering:geometricPrecision;text-rendering:geometricPrecision"
       id="g208">
      <path
         inkscape:connector-curvature="0"
         style="opacity:0.01499999;fill:#a8e5e9"
         d="m 45.5,110.5 c 0.6667,0 1.3333,0 2,0 0.3212,1.548 1.3212,2.215 3,2 0,0.333 0,0.667 0,1 -4.939,1.05 -9.939,1.05 -15,0 -0.3333,0 -0.6667,0 -1,0 -0.8478,1.125 -1.8478,1.125 -3,0 0,-0.667 -0.3333,-1 -1,-1 1.7646,-0.961 3.7646,-1.295 6,-1 0.3417,0.838 1.0084,1.172 2,1 2.5673,-0.221 4.9006,-0.888 7,-2 z"
         id="path206" />
    </g>
    <g
       transform="matrix(2.6285009,0,0,2.6285009,25.902679,-84.99063)"
       style="clip-rule:evenodd;fill-rule:evenodd;image-rendering:optimizeQuality;shape-rendering:geometricPrecision;text-rendering:geometricPrecision"
       id="g212">
      <path
         inkscape:connector-curvature="0"
         style="opacity:0.08600003;fill:#94b4da"
         d="m 31.5,113.5 c 1.1522,1.125 2.1522,1.125 3,0 0.3333,0 0.6667,0 1,0 0.709,0.904 1.709,1.237 3,1 -0.9486,0.652 -2.1153,0.986 -3.5,1 -1.6811,-0.108 -2.8478,-0.775 -3.5,-2 z"
         id="path210" />
    </g>
    <g
       transform="matrix(2.6285009,0,0,2.6285009,25.902679,-84.99063)"
       style="clip-rule:evenodd;fill-rule:evenodd;image-rendering:optimizeQuality;shape-rendering:geometricPrecision;text-rendering:geometricPrecision"
       id="g232">
      <path
         inkscape:connector-curvature="0"
         style="opacity:0.05899999;fill:#96cde2"
         d="m 85.5,121.5 c 2.8035,-1.138 5.8035,-1.305 9,-0.5 1.2736,0.977 1.2736,1.811 0,2.5 -3.3745,1.025 -7.0412,1.025 -11,0 0,-0.333 0,-0.667 0,-1 1.3734,0.157 2.7068,-0.01 4,-0.5 -0.5944,-0.464 -1.2611,-0.631 -2,-0.5 z"
         id="path230" />
    </g>
  </g>
</svg>
