<?xml version="1.0" encoding="UTF-8" standalone="no"?>
<svg
   xmlns:dc="http://purl.org/dc/elements/1.1/"
   xmlns:cc="http://creativecommons.org/ns#"
   xmlns:rdf="http://www.w3.org/1999/02/22-rdf-syntax-ns#"
   xmlns:svg="http://www.w3.org/2000/svg"
   xmlns="http://www.w3.org/2000/svg"
   xmlns:sodipodi="http://sodipodi.sourceforge.net/DTD/sodipodi-0.dtd"
   xmlns:inkscape="http://www.inkscape.org/namespaces/inkscape"
   version="1.1"
   width="100"
   height="100"
   style="clip-rule:evenodd;fill-rule:evenodd;image-rendering:optimizeQuality;shape-rendering:geometricPrecision;text-rendering:geometricPrecision"
   id="svg362"
   sodipodi:docname="logowhite.svg"
   inkscape:version="0.92.5 (2060ec1f9f, 2020-04-08)">
  <metadata
     id="metadata368">
    <rdf:RDF>
      <cc:Work
         rdf:about="">
        <dc:format>image/svg+xml</dc:format>
        <dc:type
           rdf:resource="http://purl.org/dc/dcmitype/StillImage" />
        <dc:title></dc:title>
      </cc:Work>
    </rdf:RDF>
  </metadata>
  <defs
     id="defs366" />
  <sodipodi:namedview
     pagecolor="#005a6b"
     bordercolor="#666666"
     borderopacity="1"
     objecttolerance="10"
     gridtolerance="10"
     guidetolerance="10"
     inkscape:pageopacity="0"
     inkscape:pageshadow="2"
     inkscape:window-width="3368"
     inkscape:window-height="1376"
     id="namedview364"
     showgrid="false"
     inkscape:zoom="3.1091643"
     inkscape:cx="100.06772"
     inkscape:cy="70"
     inkscape:window-x="72"
     inkscape:window-y="27"
     inkscape:window-maximized="1"
     inkscape:current-layer="svg362" />
  <g
     id="g4"
     transform="matrix(0.56799296,0,0,0.56799296,10.010845,13.729177)">
    <path
       style="opacity:0.98699999;fill:#eef3f5"
       d="m 6.5,74.5 c 0,2 0,4 0,6 -0.23731,1.291 0.09603,2.291 1,3 0.68475,1.9144 1.18475,3.9144 1.5,6 0.68909,0.8567 1.5224,1.5233 2.5,2 4.5378,-0.9493 9.0378,-1.9493 13.5,-3 1.574,-15.0175 3.074,-30.0175 4.5,-45 -2.9176,-1.5084 -3.5843,-3.6751 -2,-6.5 0.948,-0.4828 1.948,-0.6495 3,-0.5 -0.6125,-3.663 -0.7792,-7.3297 -0.5,-11 2.0638,-2.7736 4.5638,-4.6069 7.5,-5.5 1.3341,2.0871 3.1674,3.5871 5.5,4.5 0.4221,1.8553 0.9221,3.6886 1.5,5.5 -1.6779,1.9317 -2.1779,4.0983 -1.5,6.5 2.2897,-0.91 3.4563,0.09 3.5,3 -0.4252,1.8805 -1.4252,3.3805 -3,4.5 0.0699,0.7648 0.4033,1.2648 1,1.5 0.4634,13.0933 1.4634,26.0933 3,39 -1.2928,1.8635 -1.2928,3.8635 0,6 0.6067,-0.1236 0.94,-0.4569 1,-1 2.1702,1.268 4.3368,1.268 6.5,0 8.8478,-12.1774 17.6812,-24.344 26.5,-36.5 -1.7009,-1.8603 -2.7009,-4.027 -3,-6.5 1.3221,0.17 2.4887,-0.1634 3.5,-1 0.4828,0.948 0.6495,1.948 0.5,3 1,2.6667 2,2.6667 3,0 0.8603,-2.4701 2.1936,-2.6368 4,-0.5 -2.8517,2.1526 -3.3517,4.6526 -1.5,7.5 9.3333,12 18.667,24 28,36 10.742,-3.3479 10.909,-6.8479 0.5,-10.5 -6.418,-3.343 -9.251,-8.5096 -8.5,-15.5 2.642,-2.0406 5.475,-2.5406 8.5,-1.5 -4.363,-5.6204 -3.03,-9.2871 4,-11 -3.466,-5.1346 -2.133,-8.1346 4,-9 -3.137,-4.0949 -2.137,-6.7616 3,-8 -4.58,-5.4458 -3.246,-7.4458 4,-6 2.16,0.9959 3.827,2.4959 5,4.5 0.283,0.7891 0.783,1.4558 1.5,2 0.789,-2.2116 0.622,-4.2116 -0.5,-6 -0.111,-0.6174 -0.444,-1.1174 -1,-1.5 -2.924,-0.9876 -5.924,-1.6543 -9,-2 -2.962,-3.2484 -2.295,-5.415 2,-6.5 2.871,1.1261 5.538,2.2928 8,3.5 -2.992,-3.4357 -3.992,-7.2691 -3,-11.5 1.853,-1.2596 3.686,-1.2596 5.5,0 0.497,2.3098 0.663,4.6432 0.5,7 -1.129,2.1282 -1.296,4.4615 -0.5,7 1.188,-1.0634 1.688,-2.3967 1.5,-4 2.086,-6.1975 4.753,-6.5308 8,-1 -0.137,1.6073 -0.804,2.9406 -2,4 -5.694,1.1721 -7.86,4.5055 -6.5,10 1.699,-5.8694 5.532,-8.2027 11.5,-7 0.16,1.6992 -0.006,3.3659 -0.5,5 -2.772,2.2611 -5.938,3.7611 -9.5,4.5 -3.127,7.5371 -2.127,8.2037 3,2 3.365,-2.1574 6.532,-1.9908 9.5,0.5 0.062,3.616 -1.772,5.7826 -5.5,6.5 -6.744,-0.9763 -10.411,1.8571 -11,8.5 -1.073,0.7506 -1.24,1.7506 -0.5,3 0.717,-0.5442 1.217,-1.2109 1.5,-2 3.019,-4.8431 7.353,-7.0098 13,-6.5 4.027,3.3113 3.693,6.3113 -1,9 -3.916,1.1024 -7.916,1.769 -12,2 -2.894,0.8686 -4.061,2.7019 -3.5,5.5 4.581,-3.889 9.748,-5.2224 15.5,-4 3.193,6.2693 1.193,9.6027 -6,10 -0.992,-0.1716 -1.658,0.1618 -2,1 1.208,0.7341 2.541,1.0674 4,1 5.819,1.6128 6.485,4.6128 2,9 -5.19,3.0694 -10.69,3.7361 -16.5,2 -2.264,0.3537 -4.098,1.3537 -5.5,3 0.825,0.8857 1.825,1.219 3,1 -6.55,19.722 -19.55,33.556 -39,41.5 C 57.6621,141.166 30.4954,131.999 10,103.5 -7.07384,69.9882 -1.90718,40.4882 25.5,15 45.6946,0.847817 67.6946,-2.48552 91.5,5 c 12.596,5.0454 23.096,12.8788 31.5,23.5 0.781,1.4437 0.614,2.777 -0.5,4 -1,1.3333 -2,1.3333 -3,0 C 99.8357,8.91268 75.169,1.41268 45.5,10 19.8123,20.5285 6.47898,39.6951 5.5,67.5 c 0.00337,2.5254 0.3367,4.8587 1,7 z m 28,-43 c 1,0 2,0 3,0 -1,6.6667 -2,6.6667 -3,0 z m 94,6 c 0.235,-0.5967 0.735,-0.9301 1.5,-1 2.135,0.6271 4.302,1.1271 6.5,1.5 0.167,2.5 0.333,5 0.5,7.5 -1.759,-3.893 -4.592,-6.5597 -8.5,-8 z m 0,9 c 6.915,0.1535 8.749,3.4868 5.5,10 -1.255,-3.7287 -3.088,-7.062 -5.5,-10 z m 3,20 c -0.667,-0.3333 -1.333,-0.6667 -2,-1 -0.382,-3.1503 -1.716,-5.8169 -4,-8 0.333,-0.3333 0.667,-0.6667 1,-1 1.615,0.654 3.282,1.154 5,1.5 1.179,2.7957 1.179,5.6291 0,8.5 z m -13,0 c 3.218,1.1918 6.385,2.5251 9.5,4 -0.013,3.3969 -0.679,6.7302 -2,10 -0.45,-2.019 -1.283,-3.8523 -2.5,-5.5 0.333,-0.3333 0.667,-0.6667 1,-1 -1.834,-2.6633 -3.834,-5.1633 -6,-7.5 z m 25,7 c -2.902,1.1057 -5.902,2.2724 -9,3.5 -1.21,1.0391 -2.21,2.2058 -3,3.5 -0.667,0 -1,-0.3333 -1,-1 0.34,-2.179 1.34,-4.0123 3,-5.5 3.317,-0.4983 6.65,-0.665 10,-0.5 z m -60,3 c 3.6007,5.6638 7.6007,11.1638 12,16.5 -0.3333,0.3333 -0.6667,0.6667 -1,1 -7.108,0.9239 -14.108,0.5906 -21,-1 4.4125,-4.8978 7.7458,-10.3978 10,-16.5 z m -42,23 c 4.1935,0.532 8.1935,0.532 12,0 5.022,1.005 10.022,2.172 15,3.5 10.9119,5.978 22.5785,8.645 35,8 1.601,-0.273 3.101,-0.773 4.5,-1.5 0.333,0.333 0.667,0.667 1,1 1.11,-1.537 2.61,-2.203 4.5,-2 -1.394,2.208 -3.394,3.708 -6,4.5 -3.695,0.318 -7.362,0.818 -11,1.5 -12.7052,-2.291 -24.8719,-6.291 -36.5,-12 -9.1122,-1.139 -18.2789,-1.139 -27.5,0 -4.8629,1.647 -9.8629,2.647 -15,3 0,-1 0,-2 0,-3 8.071,-0.509 16.071,-1.509 24,-3 z m 11,13 c 2.4009,-0.133 4.7343,-0.133 7,0 8.4598,3.562 17.1265,6.562 26,9 0.7389,-0.131 1.4056,0.036 2,0.5 -1.2932,0.49 -2.6266,0.657 -4,0.5 -0.6667,-1.333 -1.3333,-1.333 -2,0 -10.0403,-2.568 -19.707,-5.901 -29,-10 z"
       id="path2"
       inkscape:connector-curvature="0" />
  </g>
  <g
     id="g8"
     transform="translate(0,-40)">
    <path
       style="opacity:0.14100001;fill:#47a0b1"
       d="m 140.5,19.5 c -0.237,1.291 0.096,2.291 1,3 0.188,1.6033 -0.312,2.9366 -1.5,4 -0.796,-2.5385 -0.629,-4.8718 0.5,-7 z"
       id="path6"
       inkscape:connector-curvature="0" />
  </g>
  <g
     id="g12"
     transform="translate(0,-40)">
    <path
       style="opacity:0.94800002;fill:#e7edef"
       d="m 192.5,27.5 c 6.073,-0.4314 8.24,2.2353 6.5,8 -4.544,-3.2264 -8.044,-2.393 -10.5,2.5 0.603,3.4391 2.603,5.2725 6,5.5 2.012,-0.3396 4.012,-0.6729 6,-1 0.484,3.0666 -0.682,5.0666 -3.5,6 -2.516,-1.2728 -5.016,-1.2728 -7.5,0 -5.394,-3.1386 -7.227,-7.8053 -5.5,-14 1.866,-3.7162 4.699,-6.0495 8.5,-7 z"
       id="path10"
       inkscape:connector-curvature="0" />
  </g>
  <g
     id="g16"
     transform="translate(0,-40)">
    <path
       style="opacity:0.94199997;fill:#e5edee"
       d="m 315.5,27.5 c 3.892,0.1268 6.559,1.9602 8,5.5 -0.547,0.9246 -1.213,1.7579 -2,2.5 -2.763,-2.1813 -5.763,-2.5146 -9,-1 -3.153,4.3881 -2.153,7.3881 3,9 3.933,-1.4882 3.6,-2.1549 -1,-2 0,-1.3333 0,-2.6667 0,-4 3.333,0 6.667,0 10,0 0.393,3.4297 -0.273,6.5964 -2,9.5 -3.347,1.3187 -6.68,1.8187 -10,1.5 -3.593,-0.4259 -5.76,-2.4259 -6.5,-6 -1.781,-8.3495 1.386,-13.3495 9.5,-15 z"
       id="path14"
       inkscape:connector-curvature="0" />
  </g>
  <g
     id="g20"
     transform="translate(0,-40)">
    <path
       style="opacity:0.94899998;fill:#e9eff1"
       d="m 210.5,28.5 c 1.967,-0.2394 3.801,0.0939 5.5,1 2.309,5.9325 4.809,11.7658 7.5,17.5 -1.43,1.4404 -3.097,1.7737 -5,1 -4.251,-3.3494 -8.418,-3.1827 -12.5,0.5 -0.772,-0.1448 -1.439,-0.4781 -2,-1 1.552,-6.4605 3.719,-12.7939 6.5,-19 z m 4,11 c -1.333,0 -2,-0.6667 -2,-2 -0.065,-0.4382 0.101,-0.7716 0.5,-1 0.513,1.0266 1.013,2.0266 1.5,3 z"
       id="path18"
       inkscape:connector-curvature="0" />
  </g>
  <g
     id="g24"
     transform="translate(0,-40)">
    <path
       style="opacity:0.94800002;fill:#e7eef0"
       d="m 232.5,40.5 c 1.395,-1.1477 1.228,-2.1477 -0.5,-3 -0.49,1.2932 -0.657,2.6266 -0.5,4 0.256,2.2925 -0.077,4.4592 -1,6.5 -2.425,0.9859 -4.091,0.3193 -5,-2 1.147,-5.6829 2.147,-11.3496 3,-17 1.667,-0.6667 3.333,-0.6667 5,0 1.875,2.9431 3.375,6.1098 4.5,9.5 0.273,-1.8289 1.107,-3.3289 2.5,-4.5 -0.333,-0.3333 -0.667,-0.6667 -1,-1 1.187,-1.0195 2.187,-2.1861 3,-3.5 1.545,-0.9519 3.212,-1.2852 5,-1 0.908,6.3533 1.908,12.6866 3,19 -1.574,1.1309 -3.241,1.2975 -5,0.5 -0.707,-2.5197 -1.54,-5.0197 -2.5,-7.5 -1.185,1.8772 -2.185,3.8772 -3,6 -1.049,1.0171 -2.216,1.1838 -3.5,0.5 -1.233,-2.3143 -2.567,-4.4809 -4,-6.5 z"
       id="path22"
       inkscape:connector-curvature="0" />
  </g>
  <g
     id="g28"
     transform="translate(0,-40)">
    <path
       style="opacity:0.97899996;fill:#f4f6f8"
       d="m 254.5,28.5 c 3.682,-0.1653 7.348,0.0014 11,0.5 3.712,2.513 4.878,6.013 3.5,10.5 -2.642,2.5288 -5.808,3.5288 -9.5,3 0,2 0,4 0,6 -1.644,0.2135 -3.144,-0.1198 -4.5,-1 -0.5,-6.3246 -0.666,-12.6579 -0.5,-19 z m 5,5 c 2.165,-0.3841 3.832,0.2826 5,2 -1.168,1.7174 -2.835,2.3841 -5,2 0,-1.3333 0,-2.6667 0,-4 z"
       id="path26"
       inkscape:connector-curvature="0" />
  </g>
  <g
     id="g32"
     transform="translate(0,-40)">
    <path
       style="opacity:0.969;fill:#fafbfc"
       d="m 273.5,28.5 c 1.667,0 3.333,0 5,0 0.166,6.3421 0,12.6754 -0.5,19 -1.333,1.3333 -2.667,1.3333 -4,0 -0.5,-6.3246 -0.666,-12.6579 -0.5,-19 z"
       id="path30"
       inkscape:connector-curvature="0" />
  </g>
  <g
     id="g36"
     transform="translate(0,-40)">
    <path
       style="opacity:0.97899996;fill:#e6ecee"
       d="m 294.5,37.5 c 0.283,0.7891 0.783,1.4558 1.5,2 0.499,-3.6516 0.665,-7.3183 0.5,-11 1.644,-0.2135 3.144,0.1198 4.5,1 0.667,6 0.667,12 0,18 -2.881,1.5283 -5.214,0.8616 -7,-2 -3.817,-8.1342 -5.484,-7.4676 -5,2 -1.525,0.3881 -3.192,0.3881 -5,0 -0.5,-6.3246 -0.666,-12.6579 -0.5,-19 5.696,0.3507 9.363,3.3507 11,9 z"
       id="path34"
       inkscape:connector-curvature="0" />
  </g>
  <g
     id="g40"
     transform="translate(0,-40)">
    <path
       style="opacity:0.18399999;fill:#438999"
       d="m 137.5,30.5 c 1.122,1.7884 1.289,3.7884 0.5,6 -0.717,-0.5442 -1.217,-1.2109 -1.5,-2 0.934,-1.0676 1.268,-2.401 1,-4 z"
       id="path38"
       inkscape:connector-curvature="0" />
  </g>
  <g
     id="g44"
     transform="translate(0,-40)">
    <path
       style="opacity:0.11000001;fill:#377994"
       d="m 296.5,28.5 c 0.165,3.6817 -10e-4,7.3484 -0.5,11 -0.717,-0.5442 -1.217,-1.2109 -1.5,-2 0.667,-3 1.333,-6 2,-9 z"
       id="path42"
       inkscape:connector-curvature="0" />
  </g>
  <g
     id="g48"
     transform="translate(0,-40)">
    <path
       style="opacity:0.03900003;fill:#359099"
       d="m 243.5,36.5 c 1.276,0.8864 1.276,1.8864 0,3 -0.587,-0.7334 -0.587,-1.7334 0,-3 z"
       id="path46"
       inkscape:connector-curvature="0" />
  </g>
  <g
     id="g52"
     transform="translate(0,-40)">
    <path
       style="opacity:0.02399998;fill:#5b9ea6"
       d="m 212.5,37.5 c 0,1.3333 0.667,2 2,2 0.048,1.0071 -0.952,1.3404 -3,1 -0.237,-1.291 0.096,-2.291 1,-3 z"
       id="path50"
       inkscape:connector-curvature="0" />
  </g>
  <g
     id="g56"
     transform="translate(0,-40)">
    <path
       style="opacity:0.03500001;fill:#4598a8"
       d="m 232.5,40.5 c 0,0.6667 -0.333,1 -1,1 -0.157,-1.3734 0.01,-2.7068 0.5,-4 1.728,0.8523 1.895,1.8523 0.5,3 z"
       id="path54"
       inkscape:connector-curvature="0" />
  </g>
  <g
     id="g60"
     transform="translate(0,-40)">
    <path
       style="opacity:0.00799997;fill:#c8e2e1"
       d="m 44.5,45.5 c -0.131,-0.7389 0.0357,-1.4056 0.5,-2 0.6917,0.9368 0.525,1.6034 -0.5,2 z"
       id="path58"
       inkscape:connector-curvature="0" />
  </g>
  <g
     id="g64"
     transform="translate(0,-40)">
    <path
       style="opacity:0.00400002;fill:#fefffe"
       d="m 83.5,44.5 c 1.3333,0.6667 1.3333,0.6667 0,0 z"
       id="path62"
       inkscape:connector-curvature="0" />
  </g>
  <g
     id="g68"
     transform="translate(0,-40)">
    <path
       style="opacity:0.01199999;fill:#4b9cb3"
       d="m 82.5,48.5 c 1,0 2,0 3,0 -1,2.6667 -2,2.6667 -3,0 z"
       id="path66"
       inkscape:connector-curvature="0" />
  </g>
  <g
     id="g72"
     transform="translate(0,-40)">
    <path
       style="opacity:0.98299997;fill:#e7edef"
       d="m 387.5,51.5 c 3.827,-0.1129 7.327,0.8871 10.5,3 0.667,2.6667 0.667,5.3333 0,8 -3.732,-3.5876 -7.565,-4.0876 -11.5,-1.5 4.148,2.4977 8.315,4.9977 12.5,7.5 3.457,9.0759 0.291,14.4092 -9.5,16 -3.044,-0.6777 -6.044,-1.511 -9,-2.5 -2.036,-2.5002 -2.37,-5.1669 -1,-8 2.79,0.7441 5.623,1.5774 8.5,2.5 3.263,0.5676 4.763,-0.7657 4.5,-4 -3.408,-0.8668 -6.742,-2.0335 -10,-3.5 -6.346,-8.0704 -4.68,-13.9037 5,-17.5 z"
       id="path70"
       inkscape:connector-curvature="0" />
  </g>
  <g
     id="g76"
     transform="translate(0,-40)">
    <path
       style="opacity:0.99599998;fill:#eaeff1"
       d="m 218.5,52.5 c 15.506,-1.3289 22.339,5.6711 20.5,21 -5.252,9.5316 -13.085,12.365 -23.5,8.5 -7.556,-4.8482 -10.056,-11.6816 -7.5,-20.5 2.489,-4.3325 5.989,-7.3325 10.5,-9 z m 1,7 c 7.103,-1.2982 11.103,1.5351 12,8.5 -0.607,6.8077 -4.273,9.4744 -11,8 -4.724,-2.4353 -6.224,-6.2686 -4.5,-11.5 0.997,-1.8231 2.164,-3.4897 3.5,-5 z"
       id="path74"
       inkscape:connector-curvature="0" />
  </g>
  <g
     id="g80"
     transform="translate(0,-40)">
    <path
       style="opacity:0.98799995;fill:#e6ecef"
       d="m 244.5,81.5 c -0.302,-2.5593 0.032,-4.8926 1,-7 2.365,1.0945 4.865,1.7612 7.5,2 1.973,0.1906 3.473,-0.476 4.5,-2 -3.572,-2.814 -7.572,-4.9807 -12,-6.5 -4.475,-9.5482 -1.475,-15.0482 9,-16.5 2.697,0.7324 5.364,1.5657 8,2.5 1.283,2.7947 1.283,5.6281 0,8.5 -2.193,-2.2206 -4.86,-3.554 -8,-4 -2.224,0.5807 -3.057,1.9141 -2.5,4 3.427,1.629 6.927,3.129 10.5,4.5 5.423,9.3285 2.757,15.1618 -8,17.5 -3.46,-0.6967 -6.793,-1.6967 -10,-3 z"
       id="path78"
       inkscape:connector-curvature="0" />
  </g>
  <g
     id="g84"
     transform="translate(0,-40)">
    <path
       style="opacity:0.99800002;fill:#f2f5f6"
       d="m 281.5,52.5 c 6.561,-0.5814 12.895,0.252 19,2.5 5.877,7.1566 4.877,13.1566 -3,18 -2.982,0.498 -5.982,0.6646 -9,0.5 -0.277,2.9475 0.056,5.7809 1,8.5 -2.437,1.3747 -5.103,1.8747 -8,1.5 0,-10.3333 0,-20.6667 0,-31 z m 7,7 c 2.027,-0.1621 4.027,0.0045 6,0.5 2.667,2 2.667,4 0,6 -1.973,0.4955 -3.973,0.6621 -6,0.5 0,-2.3333 0,-4.6667 0,-7 z"
       id="path82"
       inkscape:connector-curvature="0" />
  </g>
  <g
     id="g88"
     transform="translate(0,-40)">
    <path
       style="opacity:0.99100001;fill:#eaf0f1"
       d="m 353.5,52.5 c 15.493,-2.0022 22.659,4.6645 21.5,20 -3.663,9.3505 -10.497,12.8505 -20.5,10.5 -10.295,-3.7585 -13.795,-10.9251 -10.5,-21.5 2.294,-4.0388 5.461,-7.0388 9.5,-9 z m 2,7 c 7.08,-1.307 11.08,1.5263 12,8.5 -0.921,7.1345 -4.921,9.8012 -12,8 -5.297,-5.4988 -5.297,-10.9988 0,-16.5 z"
       id="path86"
       inkscape:connector-curvature="0" />
  </g>
  <g
     id="g92"
     transform="translate(0,-40)">
    <path
       style="opacity:1;fill:#e0e6ec"
       d="m 186.5,52.5 c 2.333,0 4.667,0 7,0 0,7.6667 0,15.3333 0,23 4,0 8,0 12,0 0,2.6667 0,5.3333 0,8 -6.59,0.311 -13.09,-0.0223 -19.5,-1 -0.807,-10.0771 -0.64,-20.0771 0.5,-30 z"
       id="path90"
       inkscape:connector-curvature="0" />
  </g>
  <g
     id="g96"
     transform="translate(0,-40)">
    <path
       style="opacity:0.93999999;fill:#f4f6f8"
       d="m 308.5,52.5 c 2.333,0 4.667,0 7,0 0.376,9.6744 0.543,19.3411 0.5,29 -2.106,1.791 -4.606,2.4577 -7.5,2 0,-10.3333 0,-20.6667 0,-31 z"
       id="path94"
       inkscape:connector-curvature="0" />
  </g>
  <g
     id="g100"
     transform="translate(0,-40)">
    <path
       style="opacity:1;fill:#dce4e8"
       d="m 328.5,53.5 c 0,7.6667 0,15.3333 0,23 4,0 8,0 12,0 1.311,2.0598 1.311,4.2265 0,6.5 -6.249,0.8087 -12.416,0.642 -18.5,-0.5 -0.667,-9.6667 -0.667,-19.3333 0,-29 2.274,-1.3112 4.44,-1.3112 6.5,0 z"
       id="path98"
       inkscape:connector-curvature="0" />
  </g>
  <g
     id="g104"
     transform="translate(0,-40)">
    <path
       style="opacity:0.02699998;fill:#57a8b4"
       d="m 138.5,55.5 c 0,0.6667 0.333,1 1,1 -0.283,0.7891 -0.783,1.4558 -1.5,2 -0.74,-1.2494 -0.573,-2.2494 0.5,-3 z"
       id="path102"
       inkscape:connector-curvature="0" />
  </g>
  <g
     id="g108"
     transform="translate(0,-40)">
    <path
       style="opacity:0.122;fill:#497791"
       d="m 328.5,53.5 c 0.992,7.1476 1.325,14.4809 1,22 3.871,-0.315 7.538,0.0184 11,1 -4,0 -8,0 -12,0 0,-7.6667 0,-15.3333 0,-23 z"
       id="path106"
       inkscape:connector-curvature="0" />
  </g>
  <g
     id="g112"
     transform="translate(0,-40)">
    <path
       style="opacity:0.14500002;fill:#3b97a4"
       d="m 129.5,65.5 c 0.667,0.3333 1.333,0.6667 2,1 -1.479,3.9699 -2.146,3.6366 -2,-1 z"
       id="path110"
       inkscape:connector-curvature="0" />
  </g>
  <g
     id="g116"
     transform="translate(0,-40)">
    <path
       style="opacity:0.00400002;fill:#fefffe"
       d="m 6.5,73.5 c 1.33333,0.6667 1.33333,0.6667 0,0 z"
       id="path114"
       inkscape:connector-curvature="0" />
  </g>
  <g
     id="g120"
     transform="translate(0,-40)">
    <path
       style="opacity:0.03500001;fill:#57a5b0"
       d="m 143.5,73.5 c 0.342,-0.8382 1.008,-1.1716 2,-1 0.667,0.6667 1.333,1.3333 2,2 -1.459,0.0674 -2.792,-0.2659 -4,-1 z"
       id="path118"
       inkscape:connector-curvature="0" />
  </g>
  <g
     id="g124"
     transform="translate(0,-40)">
    <path
       style="opacity:0.18000004;fill:#4f7491"
       d="m 245.5,74.5 c -0.968,2.1074 -1.302,4.4407 -1,7 -1.3,-2.5241 -1.3,-5.1908 0,-8 0.607,0.1236 0.94,0.4569 1,1 z"
       id="path122"
       inkscape:connector-curvature="0" />
  </g>
  <g
     id="g128"
     transform="translate(0,-40)">
    <path
       style="opacity:0.078;fill:#7aa3ad"
       d="m 6.5,80.5 c 1.98123,0.6054 2.31457,1.6054 1,3 -0.90397,-0.709 -1.23731,-1.709 -1,-3 z"
       id="path126"
       inkscape:connector-curvature="0" />
  </g>
  <g
     id="g132"
     transform="translate(0,-40)">
    <path
       style="opacity:0.25899999;fill:#419bb5"
       d="m 130.5,79.5 c 0,0.6667 0.333,1 1,1 -0.502,1.5847 -1.502,2.0847 -3,1.5 0.566,-0.9947 1.233,-1.828 2,-2.5 z"
       id="path130"
       inkscape:connector-curvature="0" />
  </g>
  <g
     id="g136"
     transform="translate(0,-40)">
    <path
       style="opacity:0.08999999;fill:#5d939e"
       d="m 47.5,84.5 c -0.2845,1.9147 0.0489,3.5813 1,5 -0.06,0.5431 -0.3933,0.8764 -1,1 -1.2928,-2.1365 -1.2928,-4.1365 0,-6 z"
       id="path134"
       inkscape:connector-curvature="0" />
  </g>
  <g
     id="g140"
     transform="translate(0,-40)">
    <path
       style="opacity:0.93699999;fill:#d6e0e5"
       d="m 193.5,104.5 c 0.838,0.342 1.172,1.008 1,2 -2.878,2.249 -5.712,1.916 -8.5,-1 -2.412,-5.5092 -0.746,-9.1758 5,-11 3.779,0.3886 4.779,2.0553 3,5 -4.559,-1.9392 -6.059,-0.6059 -4.5,4 1.236,0.746 2.57,1.079 4,1 z"
       id="path138"
       inkscape:connector-curvature="0" />
  </g>
  <g
     id="g144"
     transform="translate(0,-40)">
    <path
       style="opacity:0.98900003;fill:#dfe7ec"
       d="m 216.5,94.5 c 2.82,-0.2525 5.486,0.2475 8,1.5 1.333,1.6667 1.333,3.3333 0,5 2.658,2.386 2.325,4.386 -1,6 -2.31,0.497 -4.643,0.663 -7,0.5 0,-4.333 0,-8.6667 0,-13 z"
       id="path142"
       inkscape:connector-curvature="0" />
  </g>
  <g
     id="g148"
     transform="translate(0,-40)">
    <path
       style="opacity:0.94599998;fill:#d9e3e7"
       d="m 271.5,96.5 c 0.172,0.9916 -0.162,1.6583 -1,2 -4.519,-1.3241 -6.185,0.3426 -5,5 1.189,0.929 2.522,1.262 4,1 0.543,-0.06 0.876,-0.393 1,-1 -1.493,-0.641 -2.493,-1.641 -3,-3 1.667,0 3.333,0 5,0 1.368,5.452 -0.632,7.952 -6,7.5 -5.361,-2.797 -6.361,-6.797 -3,-12 2.992,-2.1342 5.658,-1.9675 8,0.5 z"
       id="path146"
       inkscape:connector-curvature="0" />
  </g>
  <g
     id="g152"
     transform="translate(0,-40)">
    <path
       style="opacity:1;fill:#dee7e9"
       d="m 204.5,94.5 c 0.996,-0.0858 1.829,0.2476 2.5,1 2.002,3.8418 3.502,7.842 4.5,12 -2.175,-0.182 -4.175,-0.849 -6,-2 -1.604,0.439 -3.104,1.106 -4.5,2 -0.5,-0.333 -1,-0.667 -1.5,-1 1.674,-4.029 3.341,-8.029 5,-12 z"
       id="path150"
       inkscape:connector-curvature="0" />
  </g>
  <g
     id="g156"
     transform="translate(0,-40)">
    <path
       style="opacity:0.972;fill:#c6d2db"
       d="m 231.5,94.5 c 0.996,-0.0858 1.829,0.2476 2.5,1 1.119,11.776 2.453,11.776 4,0 1,-1.3333 2,-1.3333 3,0 1.495,5.069 0.328,9.236 -3.5,12.5 -3.057,0.554 -5.224,-0.613 -6.5,-3.5 -0.747,-3.424 -0.58,-6.7569 0.5,-10 z"
       id="path154"
       inkscape:connector-curvature="0" />
  </g>
  <g
     id="g160"
     transform="translate(0,-40)">
    <path
       style="opacity:0.972;fill:#c9d7dd"
       d="m 247.5,94.5 c 4.408,-0.6341 7.408,1.0325 9,5 -0.029,1.529 -0.696,2.696 -2,3.5 2.845,2.786 2.511,4.12 -1,4 -2.057,-3.3 -3.057,-3.133 -3,0.5 -1.333,0 -2.667,0 -4,0 -0.269,-4.431 0.064,-8.7648 1,-13 z"
       id="path158"
       inkscape:connector-curvature="0" />
  </g>
  <g
     id="g164"
     transform="translate(0,-40)">
    <path
       style="opacity:0.98699999;fill:#ecf2f3"
       d="m 279.5,94.5 c 1.737,2.508 2.57,5.508 2.5,9 1,1.333 2,1.333 3,0 0.333,-2.667 0.667,-5.3333 1,-8 0.414,-0.4574 0.914,-0.7907 1.5,-1 1.333,4 1.333,8 0,12 -3.134,2.697 -5.967,2.364 -8.5,-1 -0.755,-3.755 -0.589,-7.4221 0.5,-11 z"
       id="path162"
       inkscape:connector-curvature="0" />
  </g>
  <g
     id="g168"
     transform="translate(0,-40)">
    <path
       style="opacity:0.95999995;fill:#e4e9ec"
       d="m 298.5,94.5 c 0.996,-0.0858 1.829,0.2476 2.5,1 2.768,3.9667 4.102,8.3 4,13 -2.884,-3.349 -6.051,-3.683 -9.5,-1 -0.667,-0.333 -1.333,-0.667 -2,-1 1.681,-4.058 3.348,-8.058 5,-12 z"
       id="path166"
       inkscape:connector-curvature="0" />
  </g>
  <g
     id="g172"
     transform="translate(0,-40)">
    <path
       style="opacity:0.247;fill:#5c9eaf"
       d="m 41.5,99.5 c 4,-1.3333 8,-1.3333 12,0 -3.8065,0.532 -7.8065,0.532 -12,0 z"
       id="path170"
       inkscape:connector-curvature="0" />
  </g>
  <g
     id="g176"
     transform="translate(0,-40)">
    <path
       style="opacity:0.12900002;fill:#3e87a4"
       d="m 252.5,98.5 c -2.667,0.3333 -2.667,0.6667 0,1 -0.709,0.904 -1.709,1.237 -3,1 0,-1 0,-2 0,-3 1.291,-0.2373 2.291,0.096 3,1 z"
       id="path174"
       inkscape:connector-curvature="0" />
  </g>
  <g
     id="g180"
     transform="translate(0,-40)">
    <path
       style="opacity:0.02699998;fill:#4275a0"
       d="m 271.5,96.5 c 0.934,1.0676 1.268,2.401 1,4 -1.667,0 -3.333,0 -5,0 1,-0.6667 2,-1.3333 3,-2 0.838,-0.3417 1.172,-1.0084 1,-2 z"
       id="path178"
       inkscape:connector-curvature="0" />
  </g>
  <g
     id="g184"
     transform="translate(0,-40)">
    <path
       style="opacity:0.00799997;fill:#fefffe"
       d="m 282.5,100.5 c 1.025,0.397 1.192,1.063 0.5,2 -0.464,-0.594 -0.631,-1.261 -0.5,-2 z"
       id="path182"
       inkscape:connector-curvature="0" />
  </g>
  <g
     id="g188"
     transform="translate(0,-40)">
    <path
       style="opacity:0.05100002;fill:#4eaebd"
       d="m 299.5,99.5 c 1.276,0.886 1.276,1.886 0,3 -0.587,-0.733 -0.587,-1.733 0,-3 z"
       id="path186"
       inkscape:connector-curvature="0" />
  </g>
  <g
     id="g192"
     transform="translate(0,-40)">
    <path
       style="opacity:0.18800001;fill:#458094"
       d="m 267.5,100.5 c 0.507,1.359 1.507,2.359 3,3 -0.124,0.607 -0.457,0.94 -1,1 -0.709,-0.904 -1.709,-1.237 -3,-1 -0.237,-1.291 0.096,-2.291 1,-3 z"
       id="path190"
       inkscape:connector-curvature="0" />
  </g>
  <g
     id="g196"
     transform="translate(0,-40)">
    <path
       style="opacity:0.18399999;fill:#427484"
       d="m 193.5,104.5 c 0.802,-1.385 1.469,-1.218 2,0.5 -0.07,0.765 -0.403,1.265 -1,1.5 0.172,-0.992 -0.162,-1.658 -1,-2 z"
       id="path194"
       inkscape:connector-curvature="0" />
  </g>
  <g
     id="g200"
     transform="translate(0,-40)">
    <path
       style="opacity:0.21600001;fill:#7db8d9"
       d="m 36.5,111.5 c 2.7869,-0.977 5.7869,-1.31 9,-1 -2.0994,1.112 -4.4327,1.779 -7,2 -0.3417,-0.838 -1.0084,-1.172 -2,-1 z"
       id="path198"
       inkscape:connector-curvature="0" />
  </g>
  <g
     id="g204"
     transform="translate(0,-40)">
    <path
       style="opacity:0.14900004;fill:#85bcd4"
       d="m 47.5,110.5 c 4.2905,-0.302 8.2905,0.364 12,2 -2.2657,-0.133 -4.5991,-0.133 -7,0 -0.6667,0 -1.3333,0 -2,0 -1.6788,0.215 -2.6788,-0.452 -3,-2 z"
       id="path202"
       inkscape:connector-curvature="0" />
  </g>
  <g
     id="g208"
     transform="translate(0,-40)">
    <path
       style="opacity:0.01499999;fill:#a8e5e9"
       d="m 45.5,110.5 c 0.6667,0 1.3333,0 2,0 0.3212,1.548 1.3212,2.215 3,2 0,0.333 0,0.667 0,1 -4.939,1.05 -9.939,1.05 -15,0 -0.3333,0 -0.6667,0 -1,0 -0.8478,1.125 -1.8478,1.125 -3,0 0,-0.667 -0.3333,-1 -1,-1 1.7646,-0.961 3.7646,-1.295 6,-1 0.3417,0.838 1.0084,1.172 2,1 2.5673,-0.221 4.9006,-0.888 7,-2 z"
       id="path206"
       inkscape:connector-curvature="0" />
  </g>
  <g
     id="g212"
     transform="translate(0,-40)">
    <path
       style="opacity:0.08600003;fill:#94b4da"
       d="m 31.5,113.5 c 1.1522,1.125 2.1522,1.125 3,0 0.3333,0 0.6667,0 1,0 0.709,0.904 1.709,1.237 3,1 -0.9486,0.652 -2.1153,0.986 -3.5,1 -1.6811,-0.108 -2.8478,-0.775 -3.5,-2 z"
       id="path210"
       inkscape:connector-curvature="0" />
  </g>
  <g
     id="g216"
     transform="translate(0,-40)">
    <path
       style="opacity:0.86000001;fill:#c0d2d8"
       d="m 186.5,118.5 c 1.838,0.477 3.672,0.81 5.5,1 0.333,2.333 0.667,4.667 1,7 1.379,-2.484 1.879,-4.984 1.5,-7.5 1.907,-0.132 3.407,0.702 4.5,2.5 1.649,-1.398 2.982,-1.064 4,1 0.82,2.228 0.487,4.228 -1,6 -0.909,-5.23 -2.075,-5.23 -3.5,0 -2.293,-0.736 -4.626,-0.902 -7,-0.5 -1.504,-1.491 -2.337,-3.324 -2.5,-5.5 -1.333,0 -2.667,0 -4,0 -0.484,-1.693 0.016,-3.027 1.5,-4 z"
       id="path214"
       inkscape:connector-curvature="0" />
  </g>
  <g
     id="g220"
     transform="translate(0,-40)">
    <path
       style="opacity:0.90100002;fill:#d4dbdd"
       d="m 208.5,120.5 c -1.123,2.188 -1.123,4.521 0,7 -1.279,1.215 -2.279,0.882 -3,-1 0.968,-2.107 1.302,-4.441 1,-7 0.827,-0.939 1.494,-0.605 2,1 z"
       id="path218"
       inkscape:connector-curvature="0" />
  </g>
  <g
     id="g224"
     transform="translate(0,-40)">
    <path
       style="opacity:0.831;fill:#c8d9de"
       d="m 314.5,119.5 c 0.574,1.028 0.907,2.028 1,3 1.214,-1.88 2.548,-2.213 4,-1 0.734,1.208 1.067,2.541 1,4 0,0.667 0.333,1 1,1 0.333,-1.333 0.667,-2.667 1,-4 1.779,1.17 2.779,2.836 3,5 -2.282,0.522 -4.615,0.856 -7,1 -1.925,-0.09 -3.092,-1.09 -3.5,-3 -0.483,0.948 -0.649,1.948 -0.5,3 -3.619,0.456 -5.952,-1.044 -7,-4.5 1.009,-2.172 2.676,-3.338 5,-3.5 -0.131,0.739 0.036,1.406 0.5,2 0.232,-1.237 0.732,-2.237 1.5,-3 z m -3,4 c 1.273,0.577 1.273,1.243 0,2 -0.963,-0.47 -0.963,-1.137 0,-2 z"
       id="path222"
       inkscape:connector-curvature="0" />
  </g>
  <g
     id="g228"
     transform="translate(0,-40)">
    <path
       style="opacity:0.72899996;fill:#b8cdd2"
       d="m 355.5,123.5 c 0,-0.667 -0.333,-1 -1,-1 -0.149,-1.052 0.017,-2.052 0.5,-3 1,-0.333 2,-0.667 3,-1 1.365,1.093 1.699,2.426 1,4 -1.145,0.119 -2.312,0.452 -3.5,1 z"
       id="path226"
       inkscape:connector-curvature="0" />
  </g>
  <g
     id="g232"
     transform="translate(0,-40)">
    <path
       style="opacity:0.05899999;fill:#96cde2"
       d="m 85.5,121.5 c 2.8035,-1.138 5.8035,-1.305 9,-0.5 1.2736,0.977 1.2736,1.811 0,2.5 -3.3745,1.025 -7.0412,1.025 -11,0 0,-0.333 0,-0.667 0,-1 1.3734,0.157 2.7068,-0.01 4,-0.5 -0.5944,-0.464 -1.2611,-0.631 -2,-0.5 z"
       id="path230"
       inkscape:connector-curvature="0" />
  </g>
  <g
     id="g236"
     transform="translate(0,-40)">
    <path
       style="opacity:0.90100002;fill:#d9e4e8"
       d="m 210.5,121.5 c -0.285,1.788 0.048,3.455 1,5 0.607,-0.124 0.94,-0.457 1,-1 0.375,-1.293 0.708,-2.626 1,-4 1.714,-0.098 4.048,-0.098 7,0 -0.734,1.208 -1.067,2.541 -1,4 0.283,0.789 0.783,1.456 1.5,2 0.232,-1.237 0.732,-2.237 1.5,-3 2.598,-1.028 2.598,-2.028 0,-3 1.41,-1.328 2.576,-0.995 3.5,1 1.101,-1.894 2.434,-2.561 4,-2 1.546,1.003 1.713,2.003 0.5,3 -1.676,0.683 -2.343,2.017 -2,4 -3.055,0.45 -6.389,1.45 -10,3 -3.022,-1.13 -6.022,-2.13 -9,-3 0,-2 0,-4 0,-6 0.333,-1.333 0.667,-1.333 1,0 z m 12,3 c -0.768,0.763 -1.268,1.763 -1.5,3 -0.717,-0.544 -1.217,-1.211 -1.5,-2 0.651,-0.591 1.318,-1.257 2,-2 0.607,0.124 0.94,0.457 1,1 z"
       id="path234"
       inkscape:connector-curvature="0" />
  </g>
  <g
     id="g240"
     transform="translate(0,-40)">
    <path
       style="opacity:0.87300002;fill:#cedce3"
       d="m 254.5,121.5 c -0.333,0.667 -0.667,1.333 -1,2 -0.268,1.599 0.066,2.932 1,4 -0.059,2.222 -1.225,3.222 -3.5,3 -5.488,-2.763 -10.988,-3.43 -16.5,-2 -0.721,-2.186 -1.387,-4.353 -2,-6.5 3.482,0 6.816,-0.167 10,-0.5 -0.254,1.901 0.08,2.567 1,2 1.148,1.395 2.148,1.228 3,-0.5 -0.948,-0.483 -1.948,-0.649 -3,-0.5 1.53,-2.377 3.03,-2.377 4.5,0 1.898,-2.184 4.064,-2.517 6.5,-1 z"
       id="path238"
       inkscape:connector-curvature="0" />
  </g>
  <g
     id="g244"
     transform="translate(0,-40)">
    <path
       style="opacity:0.79100001;fill:#dae4e9"
       d="m 262.5,122.5 c 0,0.667 -0.333,1 -1,1 -0.333,0 -0.667,0 -1,0 -0.31,-1.238 -0.81,-1.238 -1.5,0 -0.692,0.937 -0.525,1.603 0.5,2 0.667,0 1.333,0 2,0 0,0.667 0.333,1 1,1 -0.12,1.086 -0.787,1.753 -2,2 -0.916,-0.043 -1.583,-0.376 -2,-1 -0.801,-1.542 -1.134,-3.208 -1,-5 1.832,-2.457 3.499,-2.457 5,0 z"
       id="path242"
       inkscape:connector-curvature="0" />
  </g>
  <g
     id="g248"
     transform="translate(0,-40)">
    <path
       style="opacity:0.819;fill:#cbd8e1"
       d="m 263.5,126.5 c 0,-1.333 0,-2.667 0,-4 0.311,-0.978 0.978,-1.645 2,-2 2.757,1.588 3.59,3.921 2.5,7 -1.915,1.416 -3.415,1.082 -4.5,-1 z m 1,-1 c 0.577,-1.273 1.243,-1.273 2,0 -0.47,0.963 -1.137,0.963 -2,0 z"
       id="path246"
       inkscape:connector-curvature="0" />
  </g>
  <g
     id="g252"
     transform="translate(0,-40)">
    <path
       style="opacity:0.869;fill:#dde5ea"
       d="m 276.5,122.5 c 0,0.667 0.333,1 1,1 0,0.667 0.333,1 1,1 0.876,0.131 1.543,-0.202 2,-1 -0.47,-0.963 -1.137,-0.963 -2,0 0,-0.667 0,-1.333 0,-2 2.781,-0.406 5.781,-0.406 9,0 -0.333,0.667 -0.667,1.333 -1,2 -1.407,6.51 -2.574,6.51 -3.5,0 -0.494,1.634 -0.66,3.301 -0.5,5 -1.762,0.143 -3.429,-0.191 -5,-1 -1.832,0.748 -3.499,1.748 -5,3 -1.028,-2.739 -1.695,-5.239 -2,-7.5 2.116,-2.639 4.116,-2.806 6,-0.5 z"
       id="path250"
       inkscape:connector-curvature="0" />
  </g>
  <g
     id="g256"
     transform="translate(0,-40)">
    <path
       style="opacity:0.85100002;fill:#b1c9d3"
       d="m 286.5,123.5 c 0.333,-0.667 0.667,-1.333 1,-2 3.497,-1.698 5.497,-0.531 6,3.5 -0.837,1.011 -1.17,2.178 -1,3.5 -4.176,0.669 -5.509,-0.831 -4,-4.5 -0.594,-0.464 -1.261,-0.631 -2,-0.5 z"
       id="path254"
       inkscape:connector-curvature="0" />
  </g>
  <g
     id="g260"
     transform="translate(0,-40)">
    <path
       style="opacity:0.77899996;fill:#b7c9d3"
       d="m 301.5,121.5 c -0.285,1.788 0.048,3.455 1,5 0.607,-0.124 0.94,-0.457 1,-1 -0.269,-1.929 0.231,-3.595 1.5,-5 1.757,2.38 1.923,4.88 0.5,7.5 -2.648,0.099 -5.148,0.265 -7.5,0.5 -1.434,-0.43 -2.601,-1.264 -3.5,-2.5 0.586,-2.28 1.42,-4.447 2.5,-6.5 1.651,1.362 3.151,2.029 4.5,2 z m -2,1 c 1.098,1.101 1.265,2.434 0.5,4 -1.511,-1.064 -1.677,-2.397 -0.5,-4 z"
       id="path258"
       inkscape:connector-curvature="0" />
  </g>
  <g
     id="g264"
     transform="translate(0,-40)">
    <path
       style="opacity:0.247;fill:#357d91"
       d="m 314.5,119.5 c -0.768,0.763 -1.268,1.763 -1.5,3 -0.464,-0.594 -0.631,-1.261 -0.5,-2 0.211,-1.924 0.877,-2.257 2,-1 z"
       id="path262"
       inkscape:connector-curvature="0" />
  </g>
  <g
     id="g268"
     transform="translate(0,-40)">
    <path
       style="opacity:0.95;fill:#bcd2d8"
       d="m 342.5,122.5 c 0,1.667 0,3.333 0,5 0.065,0.438 -0.101,0.772 -0.5,1 -0.949,-3.878 -2.115,-3.878 -3.5,0 -3.806,-0.222 -7.472,-0.555 -11,-1 -0.481,-2.897 -2.148,-4.564 -5,-5 0,-0.333 0,-0.667 0,-1 1.629,-1.56 2.796,-1.227 3.5,1 0.739,-1.074 1.739,-1.741 3,-2 4.127,0.23 8.294,0.23 12.5,0 0.798,0.457 1.131,1.124 1,2 z m -11,2 c -0.672,0.767 -1.505,1.434 -2.5,2 -0.188,-1.561 0.645,-2.228 2.5,-2 z"
       id="path266"
       inkscape:connector-curvature="0" />
  </g>
  <g
     id="g272"
     transform="translate(0,-40)">
    <path
       style="opacity:0.82599996;fill:#bdd3d8"
       d="m 354.5,122.5 c 0.667,0 1,0.333 1,1 0.203,1.89 -0.463,3.39 -2,4.5 -3.38,-0.243 -6.713,-0.41 -10,-0.5 0.591,-0.651 1.257,-1.318 2,-2 -0.124,-0.607 -0.457,-0.94 -1,-1 0,-0.667 0,-1.333 0,-2 -0.03,-0.997 0.47,-1.664 1.5,-2 2,1.333 4,1.333 6,0 1.011,0.556 1.844,1.222 2.5,2 z"
       id="path270"
       inkscape:connector-curvature="0" />
  </g>
  <g
     id="g276"
     transform="translate(0,-40)">
    <path
       style="opacity:1;fill:#d2dde3"
       d="m 256.5,121.5 c 0,2 0,4 0,6 -0.333,1.333 -0.667,1.333 -1,0 0,-2 0,-4 0,-6 -0.903,-2.597 -0.236,-3.097 2,-1.5 -0.556,0.383 -0.889,0.883 -1,1.5 z"
       id="path274"
       inkscape:connector-curvature="0" />
  </g>
  <g
     id="g280"
     transform="translate(0,-40)">
    <path
       style="opacity:0.075;fill:#7fa9c0"
       d="m 206.5,119.5 c 0.302,2.559 -0.032,4.893 -1,7 -0.647,-0.774 -0.98,-1.774 -1,-3 -0.16,-1.855 0.507,-3.188 2,-4 z"
       id="path278"
       inkscape:connector-curvature="0" />
  </g>
  <g
     id="g284"
     transform="translate(0,-40)">
    <path
       style="opacity:0.01199999;fill:#66a6ad"
       d="m 210.5,121.5 c 1,0 2,0 3,0 -0.292,1.374 -0.625,2.707 -1,4 -0.06,0.543 -0.393,0.876 -1,1 -0.952,-1.545 -1.285,-3.212 -1,-5 z"
       id="path282"
       inkscape:connector-curvature="0" />
  </g>
  <g
     id="g288"
     transform="translate(0,-40)">
    <path
       style="opacity:0.294;fill:#3e7d98"
       d="m 220.5,121.5 c 0.667,0 1.333,0 2,0 2.598,0.972 2.598,1.972 0,3 -0.06,-0.543 -0.393,-0.876 -1,-1 -0.682,0.743 -1.349,1.409 -2,2 -0.067,-1.459 0.266,-2.792 1,-4 z"
       id="path286"
       inkscape:connector-curvature="0" />
  </g>
  <g
     id="g292"
     transform="translate(0,-40)">
    <path
       style="opacity:0.2;fill:#287789"
       d="m 243.5,123.5 c 0,-0.333 0,-0.667 0,-1 1.052,-0.149 2.052,0.017 3,0.5 -0.852,1.728 -1.852,1.895 -3,0.5 z"
       id="path290"
       inkscape:connector-curvature="0" />
  </g>
  <g
     id="g296"
     transform="translate(0,-40)">
    <path
       style="opacity:0.06700003;fill:#427993"
       d="m 278.5,121.5 c 0,0.667 0,1.333 0,2 -0.333,0 -0.667,0 -1,0 -0.667,0 -1,-0.333 -1,-1 0.667,-0.333 1.333,-0.667 2,-1 z"
       id="path294"
       inkscape:connector-curvature="0" />
  </g>
  <g
     id="g300"
     transform="translate(0,-40)">
    <path
       style="opacity:0.05499998;fill:#3f9ab2"
       d="m 301.5,121.5 c 0.667,1.333 1.333,2.667 2,4 -0.06,0.543 -0.393,0.876 -1,1 -0.952,-1.545 -1.285,-3.212 -1,-5 z"
       id="path298"
       inkscape:connector-curvature="0" />
  </g>
  <g
     id="g304"
     transform="translate(0,-40)">
    <path
       style="opacity:0.02000002;fill:#2f8db8"
       d="m 217.5,122.5 c 1.273,0.577 1.273,1.243 0,2 -0.963,-0.47 -0.963,-1.137 0,-2 z"
       id="path302"
       inkscape:connector-curvature="0" />
  </g>
  <g
     id="g308"
     transform="translate(0,-40)">
    <path
       style="opacity:0.08200001;fill:#287a9b"
       d="m 254.5,121.5 c 0.333,0 0.667,0 1,0 0,2 0,4 0,6 -0.333,0 -0.667,0 -1,0 0.268,-1.599 -0.066,-2.932 -1,-4 0.333,-0.667 0.667,-1.333 1,-2 z"
       id="path306"
       inkscape:connector-curvature="0" />
  </g>
  <g
     id="g312"
     transform="translate(0,-40)">
    <path
       style="opacity:0.25500034;fill:#328d9d"
       d="m 278.5,124.5 c 0,-0.333 0,-0.667 0,-1 0.863,-0.963 1.53,-0.963 2,0 -0.457,0.798 -1.124,1.131 -2,1 z"
       id="path310"
       inkscape:connector-curvature="0" />
  </g>
  <g
     id="g316"
     transform="translate(0,-40)">
    <path
       style="opacity:0.04299999;fill:#418caa"
       d="m 317.5,122.5 c 2.637,1.654 2.303,2.154 -1,1.5 0.556,-0.383 0.889,-0.883 1,-1.5 z"
       id="path314"
       inkscape:connector-curvature="0" />
  </g>
  <g
     id="g320"
     transform="translate(0,-40)">
    <path
       style="opacity:0.25500034;fill:#458b9c"
       d="m 319.5,121.5 c 1,0 2,0 3,0 0,0.333 0,0.667 0,1 -0.333,1.333 -0.667,2.667 -1,4 -0.667,0 -1,-0.333 -1,-1 0.067,-1.459 -0.266,-2.792 -1,-4 z"
       id="path318"
       inkscape:connector-curvature="0" />
  </g>
  <g
     id="g324"
     transform="translate(0,-40)">
    <path
       style="opacity:0.05100002;fill:#4a8d8e"
       d="m 230.5,123.5 c -0.489,1.495 -1.155,2.829 -2,4 -0.343,-1.983 0.324,-3.317 2,-4 z"
       id="path322"
       inkscape:connector-curvature="0" />
  </g>
  <g
     id="g328"
     transform="translate(0,-40)">
    <path
       style="opacity:0.01199999;fill:#4dacac"
       d="m 236.5,126.5 c -0.587,-1.267 -0.587,-2.267 0,-3 1.276,1.114 1.276,2.114 0,3 z"
       id="path326"
       inkscape:connector-curvature="0" />
  </g>
  <g
     id="g332"
     transform="translate(0,-40)">
    <path
       style="opacity:0.05899999;fill:#4290a6"
       d="m 256.5,121.5 c 0.667,0 1,0.333 1,1 -0.134,1.792 0.199,3.458 1,5 -0.667,0 -1.333,0 -2,0 0,-2 0,-4 0,-6 z"
       id="path330"
       inkscape:connector-curvature="0" />
  </g>
  <g
     id="g336"
     transform="translate(0,-40)">
    <path
       style="opacity:0.05499998;fill:#5783a6"
       d="m 260.5,123.5 c -0.333,0.667 -0.667,1.333 -1,2 -1.025,-0.397 -1.192,-1.063 -0.5,-2 0.69,-1.238 1.19,-1.238 1.5,0 z"
       id="path334"
       inkscape:connector-curvature="0" />
  </g>
  <g
     id="g340"
     transform="translate(0,-40)">
    <path
       style="opacity:0.125;fill:#417e99"
       d="m 262.5,122.5 c 0.333,0 0.667,0 1,0 0,1.333 0,2.667 0,4 -0.333,0 -0.667,0 -1,0 -0.667,0 -1,-0.333 -1,-1 1.006,-0.438 1.006,-1.104 0,-2 0.667,0 1,-0.333 1,-1 z"
       id="path338"
       inkscape:connector-curvature="0" />
  </g>
  <g
     id="g344"
     transform="translate(0,-40)">
    <path
       style="opacity:0.25100002;fill:#37859e"
       d="m 322.5,122.5 c 2.852,0.436 4.519,2.103 5,5 -0.667,0 -1.333,0 -2,0 -0.221,-2.164 -1.221,-3.83 -3,-5 z"
       id="path342"
       inkscape:connector-curvature="0" />
  </g>
  <g
     id="g348"
     transform="translate(0,-40)">
    <path
       style="opacity:0.18800001;fill:#3b7e93"
       d="m 342.5,122.5 c 0.667,0 1.333,0 2,0 0,0.667 0,1.333 0,2 0.543,0.06 0.876,0.393 1,1 -0.743,0.682 -1.409,1.349 -2,2 -0.333,0 -0.667,0 -1,0 0,-1.667 0,-3.333 0,-5 z"
       id="path346"
       inkscape:connector-curvature="0" />
  </g>
  <g
     id="g352"
     transform="translate(0,-40)">
    <path
       style="opacity:0.05100002;fill:#35929e"
       d="m 208.5,120.5 c 0,0.667 0.333,1 1,1 0,2 0,4 0,6 -0.333,0 -0.667,0 -1,0 -1.123,-2.479 -1.123,-4.812 0,-7 z"
       id="path350"
       inkscape:connector-curvature="0" />
  </g>
  <g
     id="g356"
     transform="translate(0,-40)">
    <path
       style="opacity:0.16100003;fill:#1e7690"
       d="m 250.5,128.5 c 0.577,-1.273 1.243,-1.273 2,0 -0.47,0.963 -1.137,0.963 -2,0 z"
       id="path354"
       inkscape:connector-curvature="0" />
  </g>
  <g
     id="g360"
     transform="translate(0,-40)">
    <path
       style="opacity:0.02399998;fill:#398b9b"
       d="m 217.5,127.5 c 0.876,-0.131 1.543,0.202 2,1 -2.308,1.373 -2.975,1.04 -2,-1 z"
       id="path358"
       inkscape:connector-curvature="0" />
  </g>
</svg>
