<?xml version="1.0" encoding="UTF-8" standalone="no"?>
<svg
   xmlns:dc="http://purl.org/dc/elements/1.1/"
   xmlns:cc="http://creativecommons.org/ns#"
   xmlns:rdf="http://www.w3.org/1999/02/22-rdf-syntax-ns#"
   xmlns:svg="http://www.w3.org/2000/svg"
   xmlns="http://www.w3.org/2000/svg"
   xmlns:sodipodi="http://sodipodi.sourceforge.net/DTD/sodipodi-0.dtd"
   xmlns:inkscape="http://www.inkscape.org/namespaces/inkscape"
   version="1.1"
   width="403px"
   height="140px"
   style="shape-rendering:geometricPrecision; text-rendering:geometricPrecision; image-rendering:optimizeQuality; fill-rule:evenodd; clip-rule:evenodd"
   id="svg362"
   sodipodi:docname="logowhite.svg"
   inkscape:version="0.92.5 (2060ec1f9f, 2020-04-08)">
  <metadata
     id="metadata368">
    <rdf:RDF>
      <cc:Work
         rdf:about="">
        <dc:format>image/svg+xml</dc:format>
        <dc:type
           rdf:resource="http://purl.org/dc/dcmitype/StillImage" />
        <dc:title></dc:title>
      </cc:Work>
    </rdf:RDF>
  </metadata>
  <defs
     id="defs366" />
  <sodipodi:namedview
     pagecolor="#005a6b"
     bordercolor="#666666"
     borderopacity="1"
     objecttolerance="10"
     gridtolerance="10"
     guidetolerance="10"
     inkscape:pageopacity="0"
     inkscape:pageshadow="2"
     inkscape:window-width="3368"
     inkscape:window-height="1376"
     id="namedview364"
     showgrid="false"
     inkscape:zoom="3.1091643"
     inkscape:cx="100.06772"
     inkscape:cy="70"
     inkscape:window-x="72"
     inkscape:window-y="27"
     inkscape:window-maximized="1"
     inkscape:current-layer="svg362" />
  <g
     id="g4">
    <path
       style="opacity:0.987"
       fill="#eef3f5"
       d="M 6.5,74.5 C 6.5,76.5 6.5,78.5 6.5,80.5C 6.26269,81.791 6.59603,82.791 7.5,83.5C 8.18475,85.4144 8.68475,87.4144 9,89.5C 9.68909,90.3567 10.5224,91.0233 11.5,91.5C 16.0378,90.5507 20.5378,89.5507 25,88.5C 26.574,73.4825 28.074,58.4825 29.5,43.5C 26.5824,41.9916 25.9157,39.8249 27.5,37C 28.448,36.5172 29.448,36.3505 30.5,36.5C 29.8875,32.837 29.7208,29.1703 30,25.5C 32.0638,22.7264 34.5638,20.8931 37.5,20C 38.8341,22.0871 40.6674,23.5871 43,24.5C 43.4221,26.3553 43.9221,28.1886 44.5,30C 42.8221,31.9317 42.3221,34.0983 43,36.5C 45.2897,35.59 46.4563,36.59 46.5,39.5C 46.0748,41.3805 45.0748,42.8805 43.5,44C 43.5699,44.7648 43.9033,45.2648 44.5,45.5C 44.9634,58.5933 45.9634,71.5933 47.5,84.5C 46.2072,86.3635 46.2072,88.3635 47.5,90.5C 48.1067,90.3764 48.44,90.0431 48.5,89.5C 50.6702,90.768 52.8368,90.768 55,89.5C 63.8478,77.3226 72.6812,65.156 81.5,53C 79.7991,51.1397 78.7991,48.973 78.5,46.5C 79.8221,46.67 80.9887,46.3366 82,45.5C 82.4828,46.448 82.6495,47.448 82.5,48.5C 83.5,51.1667 84.5,51.1667 85.5,48.5C 86.3603,46.0299 87.6936,45.8632 89.5,48C 86.6483,50.1526 86.1483,52.6526 88,55.5C 97.3333,67.5 106.667,79.5 116,91.5C 126.742,88.1521 126.909,84.6521 116.5,81C 110.082,77.657 107.249,72.4904 108,65.5C 110.642,63.4594 113.475,62.9594 116.5,64C 112.137,58.3796 113.47,54.7129 120.5,53C 117.034,47.8654 118.367,44.8654 124.5,44C 121.363,39.9051 122.363,37.2384 127.5,36C 122.92,30.5542 124.254,28.5542 131.5,30C 133.66,30.9959 135.327,32.4959 136.5,34.5C 136.783,35.2891 137.283,35.9558 138,36.5C 138.789,34.2884 138.622,32.2884 137.5,30.5C 137.389,29.8826 137.056,29.3826 136.5,29C 133.576,28.0124 130.576,27.3457 127.5,27C 124.538,23.7516 125.205,21.585 129.5,20.5C 132.371,21.6261 135.038,22.7928 137.5,24C 134.508,20.5643 133.508,16.7309 134.5,12.5C 136.353,11.2404 138.186,11.2404 140,12.5C 140.497,14.8098 140.663,17.1432 140.5,19.5C 139.371,21.6282 139.204,23.9615 140,26.5C 141.188,25.4366 141.688,24.1033 141.5,22.5C 143.586,16.3025 146.253,15.9692 149.5,21.5C 149.363,23.1073 148.696,24.4406 147.5,25.5C 141.806,26.6721 139.64,30.0055 141,35.5C 142.699,29.6306 146.532,27.2973 152.5,28.5C 152.66,30.1992 152.494,31.8659 152,33.5C 149.228,35.7611 146.062,37.2611 142.5,38C 139.373,45.5371 140.373,46.2037 145.5,40C 148.865,37.8426 152.032,38.0092 155,40.5C 155.062,44.116 153.228,46.2826 149.5,47C 142.756,46.0237 139.089,48.8571 138.5,55.5C 137.427,56.2506 137.26,57.2506 138,58.5C 138.717,57.9558 139.217,57.2891 139.5,56.5C 142.519,51.6569 146.853,49.4902 152.5,50C 156.527,53.3113 156.193,56.3113 151.5,59C 147.584,60.1024 143.584,60.769 139.5,61C 136.606,61.8686 135.439,63.7019 136,66.5C 140.581,62.611 145.748,61.2776 151.5,62.5C 154.693,68.7693 152.693,72.1027 145.5,72.5C 144.508,72.3284 143.842,72.6618 143.5,73.5C 144.708,74.2341 146.041,74.5674 147.5,74.5C 153.319,76.1128 153.985,79.1128 149.5,83.5C 144.31,86.5694 138.81,87.2361 133,85.5C 130.736,85.8537 128.902,86.8537 127.5,88.5C 128.325,89.3857 129.325,89.719 130.5,89.5C 123.95,109.222 110.95,123.056 91.5,131C 57.6621,141.166 30.4954,131.999 10,103.5C -7.07384,69.9882 -1.90718,40.4882 25.5,15C 45.6946,0.847817 67.6946,-2.48552 91.5,5C 104.096,10.0454 114.596,17.8788 123,28.5C 123.781,29.9437 123.614,31.277 122.5,32.5C 121.5,33.8333 120.5,33.8333 119.5,32.5C 99.8357,8.91268 75.169,1.41268 45.5,10C 19.8123,20.5285 6.47898,39.6951 5.5,67.5C 5.50337,70.0254 5.8367,72.3587 6.5,74.5 Z M 34.5,31.5 C 35.5,31.5 36.5,31.5 37.5,31.5C 36.5,38.1667 35.5,38.1667 34.5,31.5 Z M 128.5,37.5 C 128.735,36.9033 129.235,36.5699 130,36.5C 132.135,37.1271 134.302,37.6271 136.5,38C 136.667,40.5 136.833,43 137,45.5C 135.241,41.607 132.408,38.9403 128.5,37.5 Z M 128.5,46.5 C 135.415,46.6535 137.249,49.9868 134,56.5C 132.745,52.7713 130.912,49.438 128.5,46.5 Z M 131.5,66.5 C 130.833,66.1667 130.167,65.8333 129.5,65.5C 129.118,62.3497 127.784,59.6831 125.5,57.5C 125.833,57.1667 126.167,56.8333 126.5,56.5C 128.115,57.154 129.782,57.654 131.5,58C 132.679,60.7957 132.679,63.6291 131.5,66.5 Z M 118.5,66.5 C 121.718,67.6918 124.885,69.0251 128,70.5C 127.987,73.8969 127.321,77.2302 126,80.5C 125.55,78.481 124.717,76.6477 123.5,75C 123.833,74.6667 124.167,74.3333 124.5,74C 122.666,71.3367 120.666,68.8367 118.5,66.5 Z M 143.5,73.5 C 140.598,74.6057 137.598,75.7724 134.5,77C 133.29,78.0391 132.29,79.2058 131.5,80.5C 130.833,80.5 130.5,80.1667 130.5,79.5C 130.84,77.321 131.84,75.4877 133.5,74C 136.817,73.5017 140.15,73.335 143.5,73.5 Z M 83.5,76.5 C 87.1007,82.1638 91.1007,87.6638 95.5,93C 95.1667,93.3333 94.8333,93.6667 94.5,94C 87.392,94.9239 80.392,94.5906 73.5,93C 77.9125,88.1022 81.2458,82.6022 83.5,76.5 Z M 41.5,99.5 C 45.6935,100.032 49.6935,100.032 53.5,99.5C 58.522,100.505 63.522,101.672 68.5,103C 79.4119,108.978 91.0785,111.645 103.5,111C 105.101,110.727 106.601,110.227 108,109.5C 108.333,109.833 108.667,110.167 109,110.5C 110.11,108.963 111.61,108.297 113.5,108.5C 112.106,110.708 110.106,112.208 107.5,113C 103.805,113.318 100.138,113.818 96.5,114.5C 83.7948,112.209 71.6281,108.209 60,102.5C 50.8878,101.361 41.7211,101.361 32.5,102.5C 27.6371,104.147 22.6371,105.147 17.5,105.5C 17.5,104.5 17.5,103.5 17.5,102.5C 25.571,101.991 33.571,100.991 41.5,99.5 Z M 52.5,112.5 C 54.9009,112.367 57.2343,112.367 59.5,112.5C 67.9598,116.062 76.6265,119.062 85.5,121.5C 86.2389,121.369 86.9056,121.536 87.5,122C 86.2068,122.49 84.8734,122.657 83.5,122.5C 82.8333,121.167 82.1667,121.167 81.5,122.5C 71.4597,119.932 61.793,116.599 52.5,112.5 Z"
       id="path2" />
  </g>
  <g
     id="g8">
    <path
       style="opacity:0.141"
       fill="#47a0b1"
       d="M 140.5,19.5 C 140.263,20.791 140.596,21.791 141.5,22.5C 141.688,24.1033 141.188,25.4366 140,26.5C 139.204,23.9615 139.371,21.6282 140.5,19.5 Z"
       id="path6" />
  </g>
  <g
     id="g12">
    <path
       style="opacity:0.948"
       fill="#e7edef"
       d="M 192.5,27.5 C 198.573,27.0686 200.74,29.7353 199,35.5C 194.456,32.2736 190.956,33.107 188.5,38C 189.103,41.4391 191.103,43.2725 194.5,43.5C 196.512,43.1604 198.512,42.8271 200.5,42.5C 200.984,45.5666 199.818,47.5666 197,48.5C 194.484,47.2272 191.984,47.2272 189.5,48.5C 184.106,45.3614 182.273,40.6947 184,34.5C 185.866,30.7838 188.699,28.4505 192.5,27.5 Z"
       id="path10" />
  </g>
  <g
     id="g16">
    <path
       style="opacity:0.942"
       fill="#e5edee"
       d="M 315.5,27.5 C 319.392,27.6268 322.059,29.4602 323.5,33C 322.953,33.9246 322.287,34.7579 321.5,35.5C 318.737,33.3187 315.737,32.9854 312.5,34.5C 309.347,38.8881 310.347,41.8881 315.5,43.5C 319.433,42.0118 319.1,41.3451 314.5,41.5C 314.5,40.1667 314.5,38.8333 314.5,37.5C 317.833,37.5 321.167,37.5 324.5,37.5C 324.893,40.9297 324.227,44.0964 322.5,47C 319.153,48.3187 315.82,48.8187 312.5,48.5C 308.907,48.0741 306.74,46.0741 306,42.5C 304.219,34.1505 307.386,29.1505 315.5,27.5 Z"
       id="path14" />
  </g>
  <g
     id="g20">
    <path
       style="opacity:0.949"
       fill="#e9eff1"
       d="M 210.5,28.5 C 212.467,28.2606 214.301,28.5939 216,29.5C 218.309,35.4325 220.809,41.2658 223.5,47C 222.07,48.4404 220.403,48.7737 218.5,48C 214.249,44.6506 210.082,44.8173 206,48.5C 205.228,48.3552 204.561,48.0219 204,47.5C 205.552,41.0395 207.719,34.7061 210.5,28.5 Z M 214.5,39.5 C 213.167,39.5 212.5,38.8333 212.5,37.5C 212.435,37.0618 212.601,36.7284 213,36.5C 213.513,37.5266 214.013,38.5266 214.5,39.5 Z"
       id="path18" />
  </g>
  <g
     id="g24">
    <path
       style="opacity:0.948"
       fill="#e7eef0"
       d="M 232.5,40.5 C 233.895,39.3523 233.728,38.3523 232,37.5C 231.51,38.7932 231.343,40.1266 231.5,41.5C 231.756,43.7925 231.423,45.9592 230.5,48C 228.075,48.9859 226.409,48.3193 225.5,46C 226.647,40.3171 227.647,34.6504 228.5,29C 230.167,28.3333 231.833,28.3333 233.5,29C 235.375,31.9431 236.875,35.1098 238,38.5C 238.273,36.6711 239.107,35.1711 240.5,34C 240.167,33.6667 239.833,33.3333 239.5,33C 240.687,31.9805 241.687,30.8139 242.5,29.5C 244.045,28.5481 245.712,28.2148 247.5,28.5C 248.408,34.8533 249.408,41.1866 250.5,47.5C 248.926,48.6309 247.259,48.7975 245.5,48C 244.793,45.4803 243.96,42.9803 243,40.5C 241.815,42.3772 240.815,44.3772 240,46.5C 238.951,47.5171 237.784,47.6838 236.5,47C 235.267,44.6857 233.933,42.5191 232.5,40.5 Z"
       id="path22" />
  </g>
  <g
     id="g28">
    <path
       style="opacity:0.979"
       fill="#f4f6f8"
       d="M 254.5,28.5 C 258.182,28.3347 261.848,28.5014 265.5,29C 269.212,31.513 270.378,35.013 269,39.5C 266.358,42.0288 263.192,43.0288 259.5,42.5C 259.5,44.5 259.5,46.5 259.5,48.5C 257.856,48.7135 256.356,48.3802 255,47.5C 254.5,41.1754 254.334,34.8421 254.5,28.5 Z M 259.5,33.5 C 261.665,33.1159 263.332,33.7826 264.5,35.5C 263.332,37.2174 261.665,37.8841 259.5,37.5C 259.5,36.1667 259.5,34.8333 259.5,33.5 Z"
       id="path26" />
  </g>
  <g
     id="g32">
    <path
       style="opacity:0.969"
       fill="#fafbfc"
       d="M 273.5,28.5 C 275.167,28.5 276.833,28.5 278.5,28.5C 278.666,34.8421 278.5,41.1754 278,47.5C 276.667,48.8333 275.333,48.8333 274,47.5C 273.5,41.1754 273.334,34.8421 273.5,28.5 Z"
       id="path30" />
  </g>
  <g
     id="g36">
    <path
       style="opacity:0.979"
       fill="#e6ecee"
       d="M 294.5,37.5 C 294.783,38.2891 295.283,38.9558 296,39.5C 296.499,35.8484 296.665,32.1817 296.5,28.5C 298.144,28.2865 299.644,28.6198 301,29.5C 301.667,35.5 301.667,41.5 301,47.5C 298.119,49.0283 295.786,48.3616 294,45.5C 290.183,37.3658 288.516,38.0324 289,47.5C 287.475,47.8881 285.808,47.8881 284,47.5C 283.5,41.1754 283.334,34.8421 283.5,28.5C 289.196,28.8507 292.863,31.8507 294.5,37.5 Z"
       id="path34" />
  </g>
  <g
     id="g40">
    <path
       style="opacity:0.184"
       fill="#438999"
       d="M 137.5,30.5 C 138.622,32.2884 138.789,34.2884 138,36.5C 137.283,35.9558 136.783,35.2891 136.5,34.5C 137.434,33.4324 137.768,32.099 137.5,30.5 Z"
       id="path38" />
  </g>
  <g
     id="g44">
    <path
       style="opacity:0.11"
       fill="#377994"
       d="M 296.5,28.5 C 296.665,32.1817 296.499,35.8484 296,39.5C 295.283,38.9558 294.783,38.2891 294.5,37.5C 295.167,34.5 295.833,31.5 296.5,28.5 Z"
       id="path42" />
  </g>
  <g
     id="g48">
    <path
       style="opacity:0.039"
       fill="#359099"
       d="M 243.5,36.5 C 244.776,37.3864 244.776,38.3864 243.5,39.5C 242.913,38.7666 242.913,37.7666 243.5,36.5 Z"
       id="path46" />
  </g>
  <g
     id="g52">
    <path
       style="opacity:0.024"
       fill="#5b9ea6"
       d="M 212.5,37.5 C 212.5,38.8333 213.167,39.5 214.5,39.5C 214.548,40.5071 213.548,40.8404 211.5,40.5C 211.263,39.209 211.596,38.209 212.5,37.5 Z"
       id="path50" />
  </g>
  <g
     id="g56">
    <path
       style="opacity:0.035"
       fill="#4598a8"
       d="M 232.5,40.5 C 232.5,41.1667 232.167,41.5 231.5,41.5C 231.343,40.1266 231.51,38.7932 232,37.5C 233.728,38.3523 233.895,39.3523 232.5,40.5 Z"
       id="path54" />
  </g>
  <g
     id="g60">
    <path
       style="opacity:0.008"
       fill="#c8e2e1"
       d="M 44.5,45.5 C 44.369,44.7611 44.5357,44.0944 45,43.5C 45.6917,44.4368 45.525,45.1034 44.5,45.5 Z"
       id="path58" />
  </g>
  <g
     id="g64">
    <path
       style="opacity:0.004"
       fill="#fefffe"
       d="M 83.5,44.5 C 84.8333,45.1667 84.8333,45.1667 83.5,44.5 Z"
       id="path62" />
  </g>
  <g
     id="g68">
    <path
       style="opacity:0.012"
       fill="#4b9cb3"
       d="M 82.5,48.5 C 83.5,48.5 84.5,48.5 85.5,48.5C 84.5,51.1667 83.5,51.1667 82.5,48.5 Z"
       id="path66" />
  </g>
  <g
     id="g72">
    <path
       style="opacity:0.983"
       fill="#e7edef"
       d="M 387.5,51.5 C 391.327,51.3871 394.827,52.3871 398,54.5C 398.667,57.1667 398.667,59.8333 398,62.5C 394.268,58.9124 390.435,58.4124 386.5,61C 390.648,63.4977 394.815,65.9977 399,68.5C 402.457,77.5759 399.291,82.9092 389.5,84.5C 386.456,83.8223 383.456,82.989 380.5,82C 378.464,79.4998 378.13,76.8331 379.5,74C 382.29,74.7441 385.123,75.5774 388,76.5C 391.263,77.0676 392.763,75.7343 392.5,72.5C 389.092,71.6332 385.758,70.4665 382.5,69C 376.154,60.9296 377.82,55.0963 387.5,51.5 Z"
       id="path70" />
  </g>
  <g
     id="g76">
    <path
       style="opacity:0.996"
       fill="#eaeff1"
       d="M 218.5,52.5 C 234.006,51.1711 240.839,58.1711 239,73.5C 233.748,83.0316 225.915,85.865 215.5,82C 207.944,77.1518 205.444,70.3184 208,61.5C 210.489,57.1675 213.989,54.1675 218.5,52.5 Z M 219.5,59.5 C 226.603,58.2018 230.603,61.0351 231.5,68C 230.893,74.8077 227.227,77.4744 220.5,76C 215.776,73.5647 214.276,69.7314 216,64.5C 216.997,62.6769 218.164,61.0103 219.5,59.5 Z"
       id="path74" />
  </g>
  <g
     id="g80">
    <path
       style="opacity:0.988"
       fill="#e6ecef"
       d="M 244.5,81.5 C 244.198,78.9407 244.532,76.6074 245.5,74.5C 247.865,75.5945 250.365,76.2612 253,76.5C 254.973,76.6906 256.473,76.024 257.5,74.5C 253.928,71.686 249.928,69.5193 245.5,68C 241.025,58.4518 244.025,52.9518 254.5,51.5C 257.197,52.2324 259.864,53.0657 262.5,54C 263.783,56.7947 263.783,59.6281 262.5,62.5C 260.307,60.2794 257.64,58.946 254.5,58.5C 252.276,59.0807 251.443,60.4141 252,62.5C 255.427,64.129 258.927,65.629 262.5,67C 267.923,76.3285 265.257,82.1618 254.5,84.5C 251.04,83.8033 247.707,82.8033 244.5,81.5 Z"
       id="path78" />
  </g>
  <g
     id="g84">
    <path
       style="opacity:0.998"
       fill="#f2f5f6"
       d="M 281.5,52.5 C 288.061,51.9186 294.395,52.752 300.5,55C 306.377,62.1566 305.377,68.1566 297.5,73C 294.518,73.498 291.518,73.6646 288.5,73.5C 288.223,76.4475 288.556,79.2809 289.5,82C 287.063,83.3747 284.397,83.8747 281.5,83.5C 281.5,73.1667 281.5,62.8333 281.5,52.5 Z M 288.5,59.5 C 290.527,59.3379 292.527,59.5045 294.5,60C 297.167,62 297.167,64 294.5,66C 292.527,66.4955 290.527,66.6621 288.5,66.5C 288.5,64.1667 288.5,61.8333 288.5,59.5 Z"
       id="path82" />
  </g>
  <g
     id="g88">
    <path
       style="opacity:0.991"
       fill="#eaf0f1"
       d="M 353.5,52.5 C 368.993,50.4978 376.159,57.1645 375,72.5C 371.337,81.8505 364.503,85.3505 354.5,83C 344.205,79.2415 340.705,72.0749 344,61.5C 346.294,57.4612 349.461,54.4612 353.5,52.5 Z M 355.5,59.5 C 362.58,58.193 366.58,61.0263 367.5,68C 366.579,75.1345 362.579,77.8012 355.5,76C 350.203,70.5012 350.203,65.0012 355.5,59.5 Z"
       id="path86" />
  </g>
  <g
     id="g92">
    <path
       style="opacity:1"
       fill="#e0e6ec"
       d="M 186.5,52.5 C 188.833,52.5 191.167,52.5 193.5,52.5C 193.5,60.1667 193.5,67.8333 193.5,75.5C 197.5,75.5 201.5,75.5 205.5,75.5C 205.5,78.1667 205.5,80.8333 205.5,83.5C 198.91,83.811 192.41,83.4777 186,82.5C 185.193,72.4229 185.36,62.4229 186.5,52.5 Z"
       id="path90" />
  </g>
  <g
     id="g96">
    <path
       style="opacity:0.94"
       fill="#f4f6f8"
       d="M 308.5,52.5 C 310.833,52.5 313.167,52.5 315.5,52.5C 315.876,62.1744 316.043,71.8411 316,81.5C 313.894,83.291 311.394,83.9577 308.5,83.5C 308.5,73.1667 308.5,62.8333 308.5,52.5 Z"
       id="path94" />
  </g>
  <g
     id="g100">
    <path
       style="opacity:1"
       fill="#dce4e8"
       d="M 328.5,53.5 C 328.5,61.1667 328.5,68.8333 328.5,76.5C 332.5,76.5 336.5,76.5 340.5,76.5C 341.811,78.5598 341.811,80.7265 340.5,83C 334.251,83.8087 328.084,83.642 322,82.5C 321.333,72.8333 321.333,63.1667 322,53.5C 324.274,52.1888 326.44,52.1888 328.5,53.5 Z"
       id="path98" />
  </g>
  <g
     id="g104">
    <path
       style="opacity:0.027"
       fill="#57a8b4"
       d="M 138.5,55.5 C 138.5,56.1667 138.833,56.5 139.5,56.5C 139.217,57.2891 138.717,57.9558 138,58.5C 137.26,57.2506 137.427,56.2506 138.5,55.5 Z"
       id="path102" />
  </g>
  <g
     id="g108">
    <path
       style="opacity:0.122"
       fill="#497791"
       d="M 328.5,53.5 C 329.492,60.6476 329.825,67.9809 329.5,75.5C 333.371,75.185 337.038,75.5184 340.5,76.5C 336.5,76.5 332.5,76.5 328.5,76.5C 328.5,68.8333 328.5,61.1667 328.5,53.5 Z"
       id="path106" />
  </g>
  <g
     id="g112">
    <path
       style="opacity:0.145"
       fill="#3b97a4"
       d="M 129.5,65.5 C 130.167,65.8333 130.833,66.1667 131.5,66.5C 130.021,70.4699 129.354,70.1366 129.5,65.5 Z"
       id="path110" />
  </g>
  <g
     id="g116">
    <path
       style="opacity:0.004"
       fill="#fefffe"
       d="M 6.5,73.5 C 7.83333,74.1667 7.83333,74.1667 6.5,73.5 Z"
       id="path114" />
  </g>
  <g
     id="g120">
    <path
       style="opacity:0.035"
       fill="#57a5b0"
       d="M 143.5,73.5 C 143.842,72.6618 144.508,72.3284 145.5,72.5C 146.167,73.1667 146.833,73.8333 147.5,74.5C 146.041,74.5674 144.708,74.2341 143.5,73.5 Z"
       id="path118" />
  </g>
  <g
     id="g124">
    <path
       style="opacity:0.18"
       fill="#4f7491"
       d="M 245.5,74.5 C 244.532,76.6074 244.198,78.9407 244.5,81.5C 243.2,78.9759 243.2,76.3092 244.5,73.5C 245.107,73.6236 245.44,73.9569 245.5,74.5 Z"
       id="path122" />
  </g>
  <g
     id="g128">
    <path
       style="opacity:0.078"
       fill="#7aa3ad"
       d="M 6.5,80.5 C 8.48123,81.1054 8.81457,82.1054 7.5,83.5C 6.59603,82.791 6.26269,81.791 6.5,80.5 Z"
       id="path126" />
  </g>
  <g
     id="g132">
    <path
       style="opacity:0.259"
       fill="#419bb5"
       d="M 130.5,79.5 C 130.5,80.1667 130.833,80.5 131.5,80.5C 130.998,82.0847 129.998,82.5847 128.5,82C 129.066,81.0053 129.733,80.172 130.5,79.5 Z"
       id="path130" />
  </g>
  <g
     id="g136">
    <path
       style="opacity:0.09"
       fill="#5d939e"
       d="M 47.5,84.5 C 47.2155,86.4147 47.5489,88.0813 48.5,89.5C 48.44,90.0431 48.1067,90.3764 47.5,90.5C 46.2072,88.3635 46.2072,86.3635 47.5,84.5 Z"
       id="path134" />
  </g>
  <g
     id="g140">
    <path
       style="opacity:0.937"
       fill="#d6e0e5"
       d="M 193.5,104.5 C 194.338,104.842 194.672,105.508 194.5,106.5C 191.622,108.749 188.788,108.416 186,105.5C 183.588,99.9908 185.254,96.3242 191,94.5C 194.779,94.8886 195.779,96.5553 194,99.5C 189.441,97.5608 187.941,98.8941 189.5,103.5C 190.736,104.246 192.07,104.579 193.5,104.5 Z"
       id="path138" />
  </g>
  <g
     id="g144">
    <path
       style="opacity:0.989"
       fill="#dfe7ec"
       d="M 216.5,94.5 C 219.32,94.2475 221.986,94.7475 224.5,96C 225.833,97.6667 225.833,99.3333 224.5,101C 227.158,103.386 226.825,105.386 223.5,107C 221.19,107.497 218.857,107.663 216.5,107.5C 216.5,103.167 216.5,98.8333 216.5,94.5 Z"
       id="path142" />
  </g>
  <g
     id="g148">
    <path
       style="opacity:0.946"
       fill="#d9e3e7"
       d="M 271.5,96.5 C 271.672,97.4916 271.338,98.1583 270.5,98.5C 265.981,97.1759 264.315,98.8426 265.5,103.5C 266.689,104.429 268.022,104.762 269.5,104.5C 270.043,104.44 270.376,104.107 270.5,103.5C 269.007,102.859 268.007,101.859 267.5,100.5C 269.167,100.5 270.833,100.5 272.5,100.5C 273.868,105.952 271.868,108.452 266.5,108C 261.139,105.203 260.139,101.203 263.5,96C 266.492,93.8658 269.158,94.0325 271.5,96.5 Z"
       id="path146" />
  </g>
  <g
     id="g152">
    <path
       style="opacity:1"
       fill="#dee7e9"
       d="M 204.5,94.5 C 205.496,94.4142 206.329,94.7476 207,95.5C 209.002,99.3418 210.502,103.342 211.5,107.5C 209.325,107.318 207.325,106.651 205.5,105.5C 203.896,105.939 202.396,106.606 201,107.5C 200.5,107.167 200,106.833 199.5,106.5C 201.174,102.471 202.841,98.471 204.5,94.5 Z"
       id="path150" />
  </g>
  <g
     id="g156">
    <path
       style="opacity:0.972"
       fill="#c6d2db"
       d="M 231.5,94.5 C 232.496,94.4142 233.329,94.7476 234,95.5C 235.119,107.276 236.453,107.276 238,95.5C 239,94.1667 240,94.1667 241,95.5C 242.495,100.569 241.328,104.736 237.5,108C 234.443,108.554 232.276,107.387 231,104.5C 230.253,101.076 230.42,97.7431 231.5,94.5 Z"
       id="path154" />
  </g>
  <g
     id="g160">
    <path
       style="opacity:0.972"
       fill="#c9d7dd"
       d="M 247.5,94.5 C 251.908,93.8659 254.908,95.5325 256.5,99.5C 256.471,101.029 255.804,102.196 254.5,103C 257.345,105.786 257.011,107.12 253.5,107C 251.443,103.7 250.443,103.867 250.5,107.5C 249.167,107.5 247.833,107.5 246.5,107.5C 246.231,103.069 246.564,98.7352 247.5,94.5 Z"
       id="path158" />
  </g>
  <g
     id="g164">
    <path
       style="opacity:0.987"
       fill="#ecf2f3"
       d="M 279.5,94.5 C 281.237,97.008 282.07,100.008 282,103.5C 283,104.833 284,104.833 285,103.5C 285.333,100.833 285.667,98.1667 286,95.5C 286.414,95.0426 286.914,94.7093 287.5,94.5C 288.833,98.5 288.833,102.5 287.5,106.5C 284.366,109.197 281.533,108.864 279,105.5C 278.245,101.745 278.411,98.0779 279.5,94.5 Z"
       id="path162" />
  </g>
  <g
     id="g168">
    <path
       style="opacity:0.96"
       fill="#e4e9ec"
       d="M 298.5,94.5 C 299.496,94.4142 300.329,94.7476 301,95.5C 303.768,99.4667 305.102,103.8 305,108.5C 302.116,105.151 298.949,104.817 295.5,107.5C 294.833,107.167 294.167,106.833 293.5,106.5C 295.181,102.442 296.848,98.442 298.5,94.5 Z"
       id="path166" />
  </g>
  <g
     id="g172">
    <path
       style="opacity:0.247"
       fill="#5c9eaf"
       d="M 41.5,99.5 C 45.5,98.1667 49.5,98.1667 53.5,99.5C 49.6935,100.032 45.6935,100.032 41.5,99.5 Z"
       id="path170" />
  </g>
  <g
     id="g176">
    <path
       style="opacity:0.129"
       fill="#3e87a4"
       d="M 252.5,98.5 C 249.833,98.8333 249.833,99.1667 252.5,99.5C 251.791,100.404 250.791,100.737 249.5,100.5C 249.5,99.5 249.5,98.5 249.5,97.5C 250.791,97.2627 251.791,97.596 252.5,98.5 Z"
       id="path174" />
  </g>
  <g
     id="g180">
    <path
       style="opacity:0.027"
       fill="#4275a0"
       d="M 271.5,96.5 C 272.434,97.5676 272.768,98.901 272.5,100.5C 270.833,100.5 269.167,100.5 267.5,100.5C 268.5,99.8333 269.5,99.1667 270.5,98.5C 271.338,98.1583 271.672,97.4916 271.5,96.5 Z"
       id="path178" />
  </g>
  <g
     id="g184">
    <path
       style="opacity:0.008"
       fill="#fefffe"
       d="M 282.5,100.5 C 283.525,100.897 283.692,101.563 283,102.5C 282.536,101.906 282.369,101.239 282.5,100.5 Z"
       id="path182" />
  </g>
  <g
     id="g188">
    <path
       style="opacity:0.051"
       fill="#4eaebd"
       d="M 299.5,99.5 C 300.776,100.386 300.776,101.386 299.5,102.5C 298.913,101.767 298.913,100.767 299.5,99.5 Z"
       id="path186" />
  </g>
  <g
     id="g192">
    <path
       style="opacity:0.188"
       fill="#458094"
       d="M 267.5,100.5 C 268.007,101.859 269.007,102.859 270.5,103.5C 270.376,104.107 270.043,104.44 269.5,104.5C 268.791,103.596 267.791,103.263 266.5,103.5C 266.263,102.209 266.596,101.209 267.5,100.5 Z"
       id="path190" />
  </g>
  <g
     id="g196">
    <path
       style="opacity:0.184"
       fill="#427484"
       d="M 193.5,104.5 C 194.302,103.115 194.969,103.282 195.5,105C 195.43,105.765 195.097,106.265 194.5,106.5C 194.672,105.508 194.338,104.842 193.5,104.5 Z"
       id="path194" />
  </g>
  <g
     id="g200">
    <path
       style="opacity:0.216"
       fill="#7db8d9"
       d="M 36.5,111.5 C 39.2869,110.523 42.2869,110.19 45.5,110.5C 43.4006,111.612 41.0673,112.279 38.5,112.5C 38.1583,111.662 37.4916,111.328 36.5,111.5 Z"
       id="path198" />
  </g>
  <g
     id="g204">
    <path
       style="opacity:0.149"
       fill="#85bcd4"
       d="M 47.5,110.5 C 51.7905,110.198 55.7905,110.864 59.5,112.5C 57.2343,112.367 54.9009,112.367 52.5,112.5C 51.8333,112.5 51.1667,112.5 50.5,112.5C 48.8212,112.715 47.8212,112.048 47.5,110.5 Z"
       id="path202" />
  </g>
  <g
     id="g208">
    <path
       style="opacity:0.015"
       fill="#a8e5e9"
       d="M 45.5,110.5 C 46.1667,110.5 46.8333,110.5 47.5,110.5C 47.8212,112.048 48.8212,112.715 50.5,112.5C 50.5,112.833 50.5,113.167 50.5,113.5C 45.561,114.55 40.561,114.55 35.5,113.5C 35.1667,113.5 34.8333,113.5 34.5,113.5C 33.6522,114.625 32.6522,114.625 31.5,113.5C 31.5,112.833 31.1667,112.5 30.5,112.5C 32.2646,111.539 34.2646,111.205 36.5,111.5C 36.8417,112.338 37.5084,112.672 38.5,112.5C 41.0673,112.279 43.4006,111.612 45.5,110.5 Z"
       id="path206" />
  </g>
  <g
     id="g212">
    <path
       style="opacity:0.086"
       fill="#94b4da"
       d="M 31.5,113.5 C 32.6522,114.625 33.6522,114.625 34.5,113.5C 34.8333,113.5 35.1667,113.5 35.5,113.5C 36.209,114.404 37.209,114.737 38.5,114.5C 37.5514,115.152 36.3847,115.486 35,115.5C 33.3189,115.392 32.1522,114.725 31.5,113.5 Z"
       id="path210" />
  </g>
  <g
     id="g216">
    <path
       style="opacity:0.86"
       fill="#c0d2d8"
       d="M 186.5,118.5 C 188.338,118.977 190.172,119.31 192,119.5C 192.333,121.833 192.667,124.167 193,126.5C 194.379,124.016 194.879,121.516 194.5,119C 196.407,118.868 197.907,119.702 199,121.5C 200.649,120.102 201.982,120.436 203,122.5C 203.82,124.728 203.487,126.728 202,128.5C 201.091,123.27 199.925,123.27 198.5,128.5C 196.207,127.764 193.874,127.598 191.5,128C 189.996,126.509 189.163,124.676 189,122.5C 187.667,122.5 186.333,122.5 185,122.5C 184.516,120.807 185.016,119.473 186.5,118.5 Z"
       id="path214" />
  </g>
  <g
     id="g220">
    <path
       style="opacity:0.901"
       fill="#d4dbdd"
       d="M 208.5,120.5 C 207.377,122.688 207.377,125.021 208.5,127.5C 207.221,128.715 206.221,128.382 205.5,126.5C 206.468,124.393 206.802,122.059 206.5,119.5C 207.327,118.561 207.994,118.895 208.5,120.5 Z"
       id="path218" />
  </g>
  <g
     id="g224">
    <path
       style="opacity:0.831"
       fill="#c8d9de"
       d="M 314.5,119.5 C 315.074,120.528 315.407,121.528 315.5,122.5C 316.714,120.62 318.048,120.287 319.5,121.5C 320.234,122.708 320.567,124.041 320.5,125.5C 320.5,126.167 320.833,126.5 321.5,126.5C 321.833,125.167 322.167,123.833 322.5,122.5C 324.279,123.67 325.279,125.336 325.5,127.5C 323.218,128.022 320.885,128.356 318.5,128.5C 316.575,128.41 315.408,127.41 315,125.5C 314.517,126.448 314.351,127.448 314.5,128.5C 310.881,128.956 308.548,127.456 307.5,124C 308.509,121.828 310.176,120.662 312.5,120.5C 312.369,121.239 312.536,121.906 313,122.5C 313.232,121.263 313.732,120.263 314.5,119.5 Z M 311.5,123.5 C 312.773,124.077 312.773,124.743 311.5,125.5C 310.537,125.03 310.537,124.363 311.5,123.5 Z"
       id="path222" />
  </g>
  <g
     id="g228">
    <path
       style="opacity:0.729"
       fill="#b8cdd2"
       d="M 355.5,123.5 C 355.5,122.833 355.167,122.5 354.5,122.5C 354.351,121.448 354.517,120.448 355,119.5C 356,119.167 357,118.833 358,118.5C 359.365,119.593 359.699,120.926 359,122.5C 357.855,122.619 356.688,122.952 355.5,123.5 Z"
       id="path226" />
  </g>
  <g
     id="g232">
    <path
       style="opacity:0.059"
       fill="#96cde2"
       d="M 85.5,121.5 C 88.3035,120.362 91.3035,120.195 94.5,121C 95.7736,121.977 95.7736,122.811 94.5,123.5C 91.1255,124.525 87.4588,124.525 83.5,123.5C 83.5,123.167 83.5,122.833 83.5,122.5C 84.8734,122.657 86.2068,122.49 87.5,122C 86.9056,121.536 86.2389,121.369 85.5,121.5 Z"
       id="path230" />
  </g>
  <g
     id="g236">
    <path
       style="opacity:0.901"
       fill="#d9e4e8"
       d="M 210.5,121.5 C 210.215,123.288 210.548,124.955 211.5,126.5C 212.107,126.376 212.44,126.043 212.5,125.5C 212.875,124.207 213.208,122.874 213.5,121.5C 215.214,121.402 217.548,121.402 220.5,121.5C 219.766,122.708 219.433,124.041 219.5,125.5C 219.783,126.289 220.283,126.956 221,127.5C 221.232,126.263 221.732,125.263 222.5,124.5C 225.098,123.472 225.098,122.472 222.5,121.5C 223.91,120.172 225.076,120.505 226,122.5C 227.101,120.606 228.434,119.939 230,120.5C 231.546,121.503 231.713,122.503 230.5,123.5C 228.824,124.183 228.157,125.517 228.5,127.5C 225.445,127.95 222.111,128.95 218.5,130.5C 215.478,129.37 212.478,128.37 209.5,127.5C 209.5,125.5 209.5,123.5 209.5,121.5C 209.833,120.167 210.167,120.167 210.5,121.5 Z M 222.5,124.5 C 221.732,125.263 221.232,126.263 221,127.5C 220.283,126.956 219.783,126.289 219.5,125.5C 220.151,124.909 220.818,124.243 221.5,123.5C 222.107,123.624 222.44,123.957 222.5,124.5 Z"
       id="path234" />
  </g>
  <g
     id="g240">
    <path
       style="opacity:0.873"
       fill="#cedce3"
       d="M 254.5,121.5 C 254.167,122.167 253.833,122.833 253.5,123.5C 253.232,125.099 253.566,126.432 254.5,127.5C 254.441,129.722 253.275,130.722 251,130.5C 245.512,127.737 240.012,127.07 234.5,128.5C 233.779,126.314 233.113,124.147 232.5,122C 235.982,122 239.316,121.833 242.5,121.5C 242.246,123.401 242.58,124.067 243.5,123.5C 244.648,124.895 245.648,124.728 246.5,123C 245.552,122.517 244.552,122.351 243.5,122.5C 245.03,120.123 246.53,120.123 248,122.5C 249.898,120.316 252.064,119.983 254.5,121.5 Z"
       id="path238" />
  </g>
  <g
     id="g244">
    <path
       style="opacity:0.791"
       fill="#dae4e9"
       d="M 262.5,122.5 C 262.5,123.167 262.167,123.5 261.5,123.5C 261.167,123.5 260.833,123.5 260.5,123.5C 260.19,122.262 259.69,122.262 259,123.5C 258.308,124.437 258.475,125.103 259.5,125.5C 260.167,125.5 260.833,125.5 261.5,125.5C 261.5,126.167 261.833,126.5 262.5,126.5C 262.38,127.586 261.713,128.253 260.5,128.5C 259.584,128.457 258.917,128.124 258.5,127.5C 257.699,125.958 257.366,124.292 257.5,122.5C 259.332,120.043 260.999,120.043 262.5,122.5 Z"
       id="path242" />
  </g>
  <g
     id="g248">
    <path
       style="opacity:0.819"
       fill="#cbd8e1"
       d="M 263.5,126.5 C 263.5,125.167 263.5,123.833 263.5,122.5C 263.811,121.522 264.478,120.855 265.5,120.5C 268.257,122.088 269.09,124.421 268,127.5C 266.085,128.916 264.585,128.582 263.5,126.5 Z M 264.5,125.5 C 265.077,124.227 265.743,124.227 266.5,125.5C 266.03,126.463 265.363,126.463 264.5,125.5 Z"
       id="path246" />
  </g>
  <g
     id="g252">
    <path
       style="opacity:0.869"
       fill="#dde5ea"
       d="M 276.5,122.5 C 276.5,123.167 276.833,123.5 277.5,123.5C 277.5,124.167 277.833,124.5 278.5,124.5C 279.376,124.631 280.043,124.298 280.5,123.5C 280.03,122.537 279.363,122.537 278.5,123.5C 278.5,122.833 278.5,122.167 278.5,121.5C 281.281,121.094 284.281,121.094 287.5,121.5C 287.167,122.167 286.833,122.833 286.5,123.5C 285.093,130.01 283.926,130.01 283,123.5C 282.506,125.134 282.34,126.801 282.5,128.5C 280.738,128.643 279.071,128.309 277.5,127.5C 275.668,128.248 274.001,129.248 272.5,130.5C 271.472,127.761 270.805,125.261 270.5,123C 272.616,120.361 274.616,120.194 276.5,122.5 Z"
       id="path250" />
  </g>
  <g
     id="g256">
    <path
       style="opacity:0.851"
       fill="#b1c9d3"
       d="M 286.5,123.5 C 286.833,122.833 287.167,122.167 287.5,121.5C 290.997,119.802 292.997,120.969 293.5,125C 292.663,126.011 292.33,127.178 292.5,128.5C 288.324,129.169 286.991,127.669 288.5,124C 287.906,123.536 287.239,123.369 286.5,123.5 Z"
       id="path254" />
  </g>
  <g
     id="g260">
    <path
       style="opacity:0.779"
       fill="#b7c9d3"
       d="M 301.5,121.5 C 301.215,123.288 301.548,124.955 302.5,126.5C 303.107,126.376 303.44,126.043 303.5,125.5C 303.231,123.571 303.731,121.905 305,120.5C 306.757,122.88 306.923,125.38 305.5,128C 302.852,128.099 300.352,128.265 298,128.5C 296.566,128.07 295.399,127.236 294.5,126C 295.086,123.72 295.92,121.553 297,119.5C 298.651,120.862 300.151,121.529 301.5,121.5 Z M 299.5,122.5 C 300.598,123.601 300.765,124.934 300,126.5C 298.489,125.436 298.323,124.103 299.5,122.5 Z"
       id="path258" />
  </g>
  <g
     id="g264">
    <path
       style="opacity:0.247"
       fill="#357d91"
       d="M 314.5,119.5 C 313.732,120.263 313.232,121.263 313,122.5C 312.536,121.906 312.369,121.239 312.5,120.5C 312.711,118.576 313.377,118.243 314.5,119.5 Z"
       id="path262" />
  </g>
  <g
     id="g268">
    <path
       style="opacity:0.95"
       fill="#bcd2d8"
       d="M 342.5,122.5 C 342.5,124.167 342.5,125.833 342.5,127.5C 342.565,127.938 342.399,128.272 342,128.5C 341.051,124.622 339.885,124.622 338.5,128.5C 334.694,128.278 331.028,127.945 327.5,127.5C 327.019,124.603 325.352,122.936 322.5,122.5C 322.5,122.167 322.5,121.833 322.5,121.5C 324.129,119.94 325.296,120.273 326,122.5C 326.739,121.426 327.739,120.759 329,120.5C 333.127,120.73 337.294,120.73 341.5,120.5C 342.298,120.957 342.631,121.624 342.5,122.5 Z M 331.5,124.5 C 330.828,125.267 329.995,125.934 329,126.5C 328.812,124.939 329.645,124.272 331.5,124.5 Z"
       id="path266" />
  </g>
  <g
     id="g272">
    <path
       style="opacity:0.826"
       fill="#bdd3d8"
       d="M 354.5,122.5 C 355.167,122.5 355.5,122.833 355.5,123.5C 355.703,125.39 355.037,126.89 353.5,128C 350.12,127.757 346.787,127.59 343.5,127.5C 344.091,126.849 344.757,126.182 345.5,125.5C 345.376,124.893 345.043,124.56 344.5,124.5C 344.5,123.833 344.5,123.167 344.5,122.5C 344.47,121.503 344.97,120.836 346,120.5C 348,121.833 350,121.833 352,120.5C 353.011,121.056 353.844,121.722 354.5,122.5 Z"
       id="path270" />
  </g>
  <g
     id="g276">
    <path
       style="opacity:1"
       fill="#d2dde3"
       d="M 256.5,121.5 C 256.5,123.5 256.5,125.5 256.5,127.5C 256.167,128.833 255.833,128.833 255.5,127.5C 255.5,125.5 255.5,123.5 255.5,121.5C 254.597,118.903 255.264,118.403 257.5,120C 256.944,120.383 256.611,120.883 256.5,121.5 Z"
       id="path274" />
  </g>
  <g
     id="g280">
    <path
       style="opacity:0.075"
       fill="#7fa9c0"
       d="M 206.5,119.5 C 206.802,122.059 206.468,124.393 205.5,126.5C 204.853,125.726 204.52,124.726 204.5,123.5C 204.34,121.645 205.007,120.312 206.5,119.5 Z"
       id="path278" />
  </g>
  <g
     id="g284">
    <path
       style="opacity:0.012"
       fill="#66a6ad"
       d="M 210.5,121.5 C 211.5,121.5 212.5,121.5 213.5,121.5C 213.208,122.874 212.875,124.207 212.5,125.5C 212.44,126.043 212.107,126.376 211.5,126.5C 210.548,124.955 210.215,123.288 210.5,121.5 Z"
       id="path282" />
  </g>
  <g
     id="g288">
    <path
       style="opacity:0.294"
       fill="#3e7d98"
       d="M 220.5,121.5 C 221.167,121.5 221.833,121.5 222.5,121.5C 225.098,122.472 225.098,123.472 222.5,124.5C 222.44,123.957 222.107,123.624 221.5,123.5C 220.818,124.243 220.151,124.909 219.5,125.5C 219.433,124.041 219.766,122.708 220.5,121.5 Z"
       id="path286" />
  </g>
  <g
     id="g292">
    <path
       style="opacity:0.2"
       fill="#287789"
       d="M 243.5,123.5 C 243.5,123.167 243.5,122.833 243.5,122.5C 244.552,122.351 245.552,122.517 246.5,123C 245.648,124.728 244.648,124.895 243.5,123.5 Z"
       id="path290" />
  </g>
  <g
     id="g296">
    <path
       style="opacity:0.067"
       fill="#427993"
       d="M 278.5,121.5 C 278.5,122.167 278.5,122.833 278.5,123.5C 278.167,123.5 277.833,123.5 277.5,123.5C 276.833,123.5 276.5,123.167 276.5,122.5C 277.167,122.167 277.833,121.833 278.5,121.5 Z"
       id="path294" />
  </g>
  <g
     id="g300">
    <path
       style="opacity:0.055"
       fill="#3f9ab2"
       d="M 301.5,121.5 C 302.167,122.833 302.833,124.167 303.5,125.5C 303.44,126.043 303.107,126.376 302.5,126.5C 301.548,124.955 301.215,123.288 301.5,121.5 Z"
       id="path298" />
  </g>
  <g
     id="g304">
    <path
       style="opacity:0.02"
       fill="#2f8db8"
       d="M 217.5,122.5 C 218.773,123.077 218.773,123.743 217.5,124.5C 216.537,124.03 216.537,123.363 217.5,122.5 Z"
       id="path302" />
  </g>
  <g
     id="g308">
    <path
       style="opacity:0.082"
       fill="#287a9b"
       d="M 254.5,121.5 C 254.833,121.5 255.167,121.5 255.5,121.5C 255.5,123.5 255.5,125.5 255.5,127.5C 255.167,127.5 254.833,127.5 254.5,127.5C 254.768,125.901 254.434,124.568 253.5,123.5C 253.833,122.833 254.167,122.167 254.5,121.5 Z"
       id="path306" />
  </g>
  <g
     id="g312">
    <path
       style="opacity:0.255"
       fill="#328d9d"
       d="M 278.5,124.5 C 278.5,124.167 278.5,123.833 278.5,123.5C 279.363,122.537 280.03,122.537 280.5,123.5C 280.043,124.298 279.376,124.631 278.5,124.5 Z"
       id="path310" />
  </g>
  <g
     id="g316">
    <path
       style="opacity:0.043"
       fill="#418caa"
       d="M 317.5,122.5 C 320.137,124.154 319.803,124.654 316.5,124C 317.056,123.617 317.389,123.117 317.5,122.5 Z"
       id="path314" />
  </g>
  <g
     id="g320">
    <path
       style="opacity:0.255"
       fill="#458b9c"
       d="M 319.5,121.5 C 320.5,121.5 321.5,121.5 322.5,121.5C 322.5,121.833 322.5,122.167 322.5,122.5C 322.167,123.833 321.833,125.167 321.5,126.5C 320.833,126.5 320.5,126.167 320.5,125.5C 320.567,124.041 320.234,122.708 319.5,121.5 Z"
       id="path318" />
  </g>
  <g
     id="g324">
    <path
       style="opacity:0.051"
       fill="#4a8d8e"
       d="M 230.5,123.5 C 230.011,124.995 229.345,126.329 228.5,127.5C 228.157,125.517 228.824,124.183 230.5,123.5 Z"
       id="path322" />
  </g>
  <g
     id="g328">
    <path
       style="opacity:0.012"
       fill="#4dacac"
       d="M 236.5,126.5 C 235.913,125.233 235.913,124.233 236.5,123.5C 237.776,124.614 237.776,125.614 236.5,126.5 Z"
       id="path326" />
  </g>
  <g
     id="g332">
    <path
       style="opacity:0.059"
       fill="#4290a6"
       d="M 256.5,121.5 C 257.167,121.5 257.5,121.833 257.5,122.5C 257.366,124.292 257.699,125.958 258.5,127.5C 257.833,127.5 257.167,127.5 256.5,127.5C 256.5,125.5 256.5,123.5 256.5,121.5 Z"
       id="path330" />
  </g>
  <g
     id="g336">
    <path
       style="opacity:0.055"
       fill="#5783a6"
       d="M 260.5,123.5 C 260.167,124.167 259.833,124.833 259.5,125.5C 258.475,125.103 258.308,124.437 259,123.5C 259.69,122.262 260.19,122.262 260.5,123.5 Z"
       id="path334" />
  </g>
  <g
     id="g340">
    <path
       style="opacity:0.125"
       fill="#417e99"
       d="M 262.5,122.5 C 262.833,122.5 263.167,122.5 263.5,122.5C 263.5,123.833 263.5,125.167 263.5,126.5C 263.167,126.5 262.833,126.5 262.5,126.5C 261.833,126.5 261.5,126.167 261.5,125.5C 262.506,125.062 262.506,124.396 261.5,123.5C 262.167,123.5 262.5,123.167 262.5,122.5 Z"
       id="path338" />
  </g>
  <g
     id="g344">
    <path
       style="opacity:0.251"
       fill="#37859e"
       d="M 322.5,122.5 C 325.352,122.936 327.019,124.603 327.5,127.5C 326.833,127.5 326.167,127.5 325.5,127.5C 325.279,125.336 324.279,123.67 322.5,122.5 Z"
       id="path342" />
  </g>
  <g
     id="g348">
    <path
       style="opacity:0.188"
       fill="#3b7e93"
       d="M 342.5,122.5 C 343.167,122.5 343.833,122.5 344.5,122.5C 344.5,123.167 344.5,123.833 344.5,124.5C 345.043,124.56 345.376,124.893 345.5,125.5C 344.757,126.182 344.091,126.849 343.5,127.5C 343.167,127.5 342.833,127.5 342.5,127.5C 342.5,125.833 342.5,124.167 342.5,122.5 Z"
       id="path346" />
  </g>
  <g
     id="g352">
    <path
       style="opacity:0.051"
       fill="#35929e"
       d="M 208.5,120.5 C 208.5,121.167 208.833,121.5 209.5,121.5C 209.5,123.5 209.5,125.5 209.5,127.5C 209.167,127.5 208.833,127.5 208.5,127.5C 207.377,125.021 207.377,122.688 208.5,120.5 Z"
       id="path350" />
  </g>
  <g
     id="g356">
    <path
       style="opacity:0.161"
       fill="#1e7690"
       d="M 250.5,128.5 C 251.077,127.227 251.743,127.227 252.5,128.5C 252.03,129.463 251.363,129.463 250.5,128.5 Z"
       id="path354" />
  </g>
  <g
     id="g360">
    <path
       style="opacity:0.024"
       fill="#398b9b"
       d="M 217.5,127.5 C 218.376,127.369 219.043,127.702 219.5,128.5C 217.192,129.873 216.525,129.54 217.5,127.5 Z"
       id="path358" />
  </g>
</svg>
